<?xml version="1.0" standalone="no"?>
<!DOCTYPE svg PUBLIC "-//W3C//DTD SVG 20010904//EN"
 "http://www.w3.org/TR/2001/REC-SVG-20010904/DTD/svg10.dtd">
<svg version="1.0" xmlns="http://www.w3.org/2000/svg"
 width="1600.000000pt" height="769.000000pt" viewBox="0 0 1600.000000 769.000000"
 preserveAspectRatio="xMidYMid meet">

<g transform="translate(0.000000,769.000000) scale(0.100000,-0.100000)"
fill="#000000" stroke="none">
<path d="M0 3845 l0 -3845 2793 0 c2221 0 2796 3 2806 12 11 10 12 10 7 1 -10
-17 8999 -19 9010 -2 4 8 9 7 15 -2 7 -11 9 -11 9 2 0 9 7 16 15 16 18 0 20
-13 3 -20 -7 -3 292 -6 665 -6 l677 -1 0 3845 0 3845 -8000 0 -8000 0 0 -3845z
m3854 3346 c19 -21 3 -42 -17 -22 -17 17 -35 13 -47 -8 -14 -26 -3 -51 23 -51
16 0 18 3 9 12 -19 19 -14 28 18 28 23 0 30 -5 30 -19 0 -28 -27 -51 -59 -51
-41 0 -56 25 -52 82 3 44 64 63 95 29z m292 -43 c-1 -40 -5 -63 -14 -66 -10
-3 -12 12 -11 62 1 43 6 66 14 66 8 0 11 -20 11 -62z m352 50 c21 -21 13 -30
-18 -23 -16 4 -30 3 -30 -2 0 -5 14 -14 30 -20 22 -8 30 -18 30 -36 0 -35 -60
-53 -88 -25 -21 21 -13 29 23 22 23 -4 35 -2 35 5 0 6 -8 11 -18 11 -24 0 -42
19 -42 46 0 32 53 47 78 22z m522 -52 l0 -64 -40 0 c-40 -1 -60 16 -60 52 0
23 30 47 51 41 14 -5 19 -1 19 14 0 12 7 21 15 21 12 0 15 -14 15 -64z m-994
37 c13 -17 15 -17 28 0 14 19 35 23 37 7 1 -5 2 -33 3 -60 1 -40 -2 -50 -14
-48 -9 2 -17 18 -20 37 -3 19 -11 36 -17 39 -19 6 -28 -27 -15 -49 17 -26 15
-31 -10 -27 -18 2 -24 12 -29 42 -11 68 8 97 37 59z m539 0 c10 -13 10 -21 1
-35 -8 -14 -8 -23 2 -38 17 -27 15 -32 -10 -28 -18 2 -24 12 -30 43 -11 66 9
97 37 58z m236 7 c1 -5 2 -33 3 -60 1 -40 -2 -50 -14 -48 -9 2 -17 18 -20 38
-5 32 -10 36 -39 32 -6 -1 -11 -16 -13 -34 -5 -55 -28 -46 -28 11 l0 50 35 -4
c26 -4 37 -1 41 10 7 17 33 21 35 5z m-848 -22 c12 -9 16 -24 14 -48 -2 -30
-6 -35 -30 -38 -35 -4 -57 13 -57 44 0 24 24 54 44 54 7 0 20 -6 29 -12z m290
3 c4 -1 7 -21 7 -46 0 -33 -4 -45 -15 -45 -11 0 -15 11 -15 36 0 45 -24 42
-28 -4 -5 -51 -32 -41 -32 11 0 24 2 46 5 49 5 5 43 4 78 -1z m115 -46 c1 -28
-1 -55 -5 -61 -14 -20 -48 -25 -69 -9 -18 14 -17 14 14 15 17 0 32 4 32 9 0 5
-10 7 -21 4 -15 -4 -27 0 -35 12 -31 42 -6 84 48 81 32 -1 33 -3 36 -51z m300
43 c7 -7 12 -29 12 -50 0 -37 -1 -38 -39 -38 -58 0 -64 37 -11 59 21 9 21 11
5 10 -34 -2 -38 0 -25 16 15 18 42 19 58 3z m236 -1 c12 -9 17 -23 14 -47 -3
-33 -5 -35 -38 -35 -29 0 -36 5 -44 27 -8 22 -6 32 9 48 21 23 34 25 59 7z
m-4089 -24 l18 -26 14 26 c7 15 20 27 28 27 20 0 19 -9 -5 -45 -11 -16 -20
-42 -20 -57 0 -18 -5 -28 -15 -28 -8 0 -15 7 -15 15 0 9 -9 33 -20 55 -11 22
-20 44 -20 50 0 18 17 10 35 -17z m292 7 c3 -13 14 -20 28 -20 25 0 35 -17 35
-61 0 -41 -28 -39 -32 3 -4 46 -28 49 -28 3 0 -29 -3 -36 -17 -33 -11 2 -17
12 -16 26 0 12 1 40 2 62 1 42 19 55 28 20z m93 -5 c0 -14 -4 -25 -10 -25 -11
0 -14 33 -3 43 11 11 13 8 13 -18z m250 10 c0 -8 -9 -15 -20 -15 -17 0 -20 -7
-20 -50 0 -27 -4 -50 -10 -50 -5 0 -10 23 -10 50 0 43 -3 50 -20 50 -11 0 -20
7 -20 15 0 11 12 15 50 15 38 0 50 -4 50 -15z m3748 -17 c-6 -18 -28 -21 -28
-4 0 9 7 16 16 16 9 0 14 -5 12 -12z m50 0 c-6 -18 -28 -21 -28 -4 0 9 7 16
16 16 9 0 14 -5 12 -12z m52 -3 c0 -8 -7 -15 -15 -15 -8 0 -15 7 -15 15 0 8 7
15 15 15 8 0 15 -7 15 -15z m-4640 1 c0 -2 -12 -27 -26 -55 -26 -49 -28 -51
-70 -51 l-44 0 0 55 0 55 70 0 c39 0 70 -2 70 -4z m304 -22 c3 -9 6 -29 6 -45
0 -29 -1 -30 -42 -27 -56 4 -64 31 -16 54 29 13 30 14 6 9 -21 -4 -28 -1 -28
10 0 21 66 21 74 -1z m89 9 c4 -3 2 -12 -4 -20 -9 -10 -8 -13 0 -13 7 0 11
-10 9 -22 -2 -19 -9 -23 -37 -23 -20 0 -36 6 -39 14 -4 11 2 12 24 7 l29 -6
-27 15 c-27 15 -35 34 -21 48 8 9 58 9 66 0z m237 -8 c-3 -5 -14 -9 -25 -8
-15 2 -13 -1 8 -13 39 -21 32 -49 -12 -49 -19 0 -36 6 -39 13 -3 9 4 11 25 7
l28 -5 -27 11 c-26 10 -37 37 -21 53 11 11 69 2 63 -9z m239 1 c13 -15 10 -51
-6 -67 -6 -6 -23 -9 -39 -7 -23 2 -30 9 -32 31 -2 16 -1 35 2 43 7 18 60 18
75 0z m99 -34 l3 -43 -38 3 c-31 2 -39 7 -41 26 -2 13 2 22 10 22 10 0 10 2
-1 9 -22 14 -2 32 32 29 30 -3 32 -6 35 -46z m152 3 c0 -51 -17 -62 -22 -13
-4 46 -28 49 -28 4 0 -25 -4 -36 -15 -36 -10 0 -15 11 -15 35 0 19 -4 35 -10
35 -5 0 -10 -16 -10 -35 0 -24 -5 -35 -15 -35 -11 0 -15 12 -15 45 l0 45 65 0
65 0 0 -45z m140 16 c0 -5 -7 -14 -15 -21 -12 -10 -18 -10 -30 0 -23 19 -18
30 15 30 17 0 30 -4 30 -9z m-976 -722 c-3 -5 -10 -7 -15 -3 -5 3 -7 10 -3 15
3 5 10 7 15 3 5 -3 7 -10 3 -15z m-474 -15 c0 -21 -4 -25 -22 -22 -15 2 -24
11 -26 26 -3 18 1 22 22 22 21 0 26 -5 26 -26z m65 1 c0 -31 -49 -28 -53 3 -3
20 0 23 25 20 20 -2 28 -8 28 -23z m162 -27 l18 -53 3 53 c2 37 7 52 18 52 10
0 14 -14 14 -55 0 -54 -1 -55 -29 -55 -16 0 -31 6 -35 15 -3 8 -12 15 -21 15
-9 0 -18 -7 -21 -15 -4 -8 -12 -15 -20 -15 -17 0 -17 0 0 41 7 19 16 42 19 52
12 33 35 18 54 -35z m92 -3 c-1 -39 -6 -55 -15 -55 -10 0 -14 15 -14 55 0 42
3 55 15 55 12 0 15 -12 14 -55z m121 45 c0 -5 -11 -10 -25 -10 -14 0 -25 -4
-25 -10 0 -5 9 -10 19 -10 30 0 34 -17 6 -24 -16 -4 -25 -13 -25 -26 0 -11 -4
-20 -10 -20 -5 0 -10 25 -10 55 l0 55 35 0 c19 0 35 -4 35 -10z m80 -45 c0
-42 -3 -55 -15 -55 -12 0 -15 13 -15 55 0 42 3 55 15 55 12 0 15 -13 15 -55z
m1460 9 c7 -19 9 -38 6 -41 -3 -4 -6 -1 -6 5 0 7 -9 12 -20 12 -11 0 -20 -5
-20 -12 0 -6 -3 -9 -6 -5 -7 7 17 77 27 77 4 0 13 -16 19 -36z m-1500 -24 c0
-29 -4 -40 -15 -40 -11 0 -15 11 -15 40 0 29 4 40 15 40 11 0 15 -11 15 -40z
m123 27 c3 -7 3 -26 0 -41 -5 -23 -10 -27 -37 -24 -24 2 -32 8 -34 26 -2 13
-1 30 2 38 7 18 62 19 69 1z m83 2 c5 -9 -1 -10 -20 -5 -33 8 -34 -1 0 -14 36
-14 29 -45 -10 -45 -16 0 -31 5 -33 12 -3 7 4 10 19 7 l23 -5 -22 12 c-34 18
-30 49 6 49 17 0 33 -5 37 -11z m-686 -44 c0 -20 -5 -25 -25 -25 -18 0 -25 5
-25 18 0 24 8 32 32 32 13 0 18 -7 18 -25z m65 0 c0 -22 -31 -33 -47 -17 -17
17 -1 44 24 40 15 -2 23 -10 23 -23z m3855 -130 c0 -10 -10 -15 -30 -15 -16 0
-30 -4 -30 -10 0 -5 11 -10 25 -10 16 0 25 -6 25 -15 0 -9 -9 -15 -25 -15 -33
0 -32 -18 2 -22 48 -6 39 -28 -11 -28 l-46 0 0 58 c0 32 3 62 7 65 3 4 24 7
45 7 27 0 38 -4 38 -15z m510 -1 c0 -9 -5 -14 -12 -12 -18 6 -21 28 -4 28 9 0
16 -7 16 -16z m183 -4 c3 -13 14 -20 31 -20 30 0 44 -36 26 -69 -8 -16 -20
-21 -50 -21 l-40 0 0 58 c0 32 3 62 7 65 11 12 21 8 26 -13z m692 11 c7 -12
-12 -24 -25 -16 -11 7 -4 25 10 25 5 0 11 -4 15 -9z m112 -11 c3 -13 14 -20
28 -20 25 0 35 -17 35 -61 0 -41 -28 -39 -32 3 -4 46 -28 49 -28 4 0 -25 -4
-36 -15 -36 -12 0 -15 14 -15 65 0 40 4 65 11 65 6 0 13 -9 16 -20z m4473 5
c0 -8 -9 -15 -20 -15 -17 0 -20 -7 -20 -50 0 -38 -4 -50 -15 -50 -11 0 -15 12
-15 50 0 38 -4 50 -15 50 -8 0 -15 7 -15 15 0 11 12 15 50 15 38 0 50 -4 50
-15z m370 0 c0 -8 -4 -15 -9 -15 -13 0 -22 16 -14 24 11 11 23 6 23 -9z m148
-53 c2 -51 0 -62 -13 -62 -12 0 -15 13 -15 66 0 48 3 65 13 62 7 -3 13 -28 15
-66z m216 27 c-1 -30 2 -36 16 -32 14 4 17 -2 16 -26 -1 -30 -3 -31 -43 -31
-46 0 -70 23 -52 51 5 7 9 26 9 40 0 32 8 41 35 37 16 -2 20 -10 19 -39z m187
20 c16 -16 20 -28 15 -52 -4 -18 -7 -40 -7 -50 0 -15 -6 -17 -37 -11 -48 9
-72 30 -72 66 0 33 31 68 60 68 11 0 29 -9 41 -21z m167 9 c-6 -18 -28 -21
-28 -4 0 9 7 16 16 16 9 0 14 -5 12 -12z m142 -20 c0 -25 3 -29 12 -20 7 7 21
12 32 12 18 0 18 -1 3 -18 -15 -16 -15 -21 -2 -38 8 -10 15 -22 15 -26 0 -14
-23 -9 -42 9 -17 15 -18 15 -18 0 0 -10 -7 -17 -15 -17 -12 0 -15 14 -15 65 0
51 3 65 15 65 10 0 15 -10 15 -32z m210 17 c0 -8 -9 -15 -20 -15 -17 0 -20 -7
-20 -50 0 -38 -4 -50 -15 -50 -11 0 -15 12 -15 50 0 38 -4 50 -15 50 -8 0 -15
7 -15 15 0 11 12 15 50 15 38 0 50 -4 50 -15z m40 -1 c0 -9 -5 -14 -12 -12
-18 6 -21 28 -4 28 9 0 16 -7 16 -16z m-6538 -11 c0 -10 0 -31 -1 -46 -1 -16
3 -35 10 -44 11 -13 10 -14 -11 -11 -19 2 -26 10 -28 33 -2 17 -8 36 -14 43
-7 8 -7 12 1 12 6 0 11 7 11 15 0 21 30 19 32 -2z m67 -5 c10 -16 10 -23 2
-26 -14 -5 -15 -39 -1 -47 17 -10 11 -25 -10 -25 -13 0 -22 9 -26 28 -3 15 -8
33 -10 40 -4 15 13 52 24 52 4 0 13 -10 21 -22z m462 10 c6 -87 4 -108 -13
-108 -10 0 -20 10 -22 23 -3 12 -7 31 -9 42 -3 11 -5 1 -6 -22 -1 -36 -4 -43
-21 -43 -17 0 -20 7 -20 45 0 41 2 45 24 45 13 0 26 7 30 15 7 18 36 20 37 3z
m349 -8 c8 -14 8 -26 0 -41 -9 -16 -8 -25 6 -40 16 -18 16 -19 -9 -19 -24 0
-27 4 -27 34 0 19 -5 36 -11 38 -8 3 -8 10 2 26 17 27 25 28 39 2z m4329 -2
c10 -16 10 -23 2 -26 -14 -5 -15 -39 -1 -47 18 -11 10 -26 -12 -23 -18 2 -24
12 -29 42 -11 70 11 100 40 54z m-5961 -56 l3 -43 -38 3 c-31 2 -39 7 -41 26
-2 12 2 22 8 22 6 0 8 5 5 10 -3 6 -14 10 -25 10 -19 0 -30 -19 -30 -51 0 -10
-7 -19 -15 -19 -11 0 -15 12 -15 45 l0 45 73 -3 72 -2 3 -43z m95 41 c4 -3 2
-12 -4 -20 -9 -10 -8 -13 0 -13 7 0 11 -10 9 -22 -2 -19 -9 -23 -37 -23 -20 0
-36 6 -39 14 -4 11 2 12 24 7 l29 -6 -27 15 c-27 15 -35 34 -21 48 8 9 58 9
66 0z m102 -38 c0 -36 -3 -40 -28 -43 -34 -4 -57 13 -57 42 0 31 20 47 55 44
28 -3 30 -6 30 -43z m85 35 c0 -5 -7 -10 -15 -10 -10 0 -15 -11 -15 -35 0 -27
-4 -35 -18 -35 -15 0 -19 9 -21 45 l-2 45 36 0 c19 0 35 -4 35 -10z m70 -35
c0 -33 -4 -45 -15 -45 -11 0 -15 12 -15 45 0 33 4 45 15 45 11 0 15 -12 15
-45z m92 30 c-2 -5 -13 -9 -25 -8 -17 2 -16 0 6 -8 39 -15 34 -53 -7 -57 -31
-4 -61 17 -38 25 10 4 10 8 1 19 -20 24 -3 46 33 42 18 -2 32 -7 30 -13z m247
1 c12 -14 11 -42 -2 -63 -10 -16 -49 -17 -65 -1 -13 13 -16 60 -5 71 11 12 60
7 72 -7z m235 -3 c13 -43 -8 -77 -44 -71 -30 4 -45 29 -36 61 5 23 12 27 41
27 23 0 35 -5 39 -17z m76 8 c0 -5 -7 -11 -15 -15 -9 -3 -15 -18 -15 -36 0
-20 -5 -30 -15 -30 -11 0 -15 12 -15 45 0 43 1 45 30 45 17 0 30 -4 30 -9z
m81 -13 l0 -23 11 23 c6 12 16 22 23 22 7 0 17 -10 23 -22 l11 -23 0 23 c1 13
7 22 17 22 13 0 15 -7 9 -37 -4 -21 -9 -41 -11 -45 -10 -16 -33 -7 -40 14 l-7
23 -8 -23 c-13 -34 -37 -27 -48 16 -14 48 -14 52 4 52 9 0 15 -9 16 -22z m453
6 c3 -9 6 -29 6 -45 0 -27 -2 -29 -40 -29 -44 0 -61 19 -41 44 8 10 9 16 1 21
-18 11 0 25 35 25 21 0 35 -6 39 -16z m201 -29 c0 -39 -1 -40 -34 -40 -40 0
-57 21 -47 59 6 24 11 27 44 24 36 -3 37 -4 37 -43z m99 29 c3 -9 6 -29 6 -45
0 -29 -1 -30 -42 -27 -56 4 -64 31 -16 54 29 13 30 14 6 9 -21 -4 -28 -1 -28
10 0 21 66 21 74 -1z m156 -29 c0 -33 -4 -45 -15 -45 -10 0 -15 11 -15 35 0
19 -4 35 -10 35 -5 0 -10 -16 -10 -35 0 -24 -5 -35 -15 -35 -11 0 -15 11 -15
36 0 45 -24 42 -28 -4 -5 -52 -32 -41 -32 13 l0 45 70 0 70 0 0 -45z m3850 15
c0 -20 5 -30 15 -30 10 0 15 10 15 30 0 20 5 30 15 30 11 0 15 -12 15 -45 l0
-45 -39 0 c-42 0 -51 11 -51 61 0 19 5 29 15 29 10 0 15 -10 15 -30z m226 3
c8 -32 -6 -57 -35 -61 -30 -5 -51 15 -51 48 0 35 6 40 46 40 28 0 35 -4 40
-27z m114 -18 c0 -33 -4 -45 -15 -45 -10 0 -15 11 -15 35 0 23 -5 35 -14 35
-15 0 -26 -21 -26 -51 0 -10 -7 -19 -15 -19 -11 0 -15 12 -15 45 l0 45 50 0
50 0 0 -45z m98 -2 l3 -43 -39 0 c-59 0 -66 36 -12 60 25 10 25 10 -2 5 -16
-3 -28 -2 -28 3 0 16 14 23 45 20 28 -3 30 -6 33 -45z m139 35 c-2 -7 -15 -12
-28 -10 -20 2 -18 0 9 -12 17 -8 32 -19 32 -24 0 -31 -78 -43 -88 -13 -4 11 2
12 24 7 l29 -6 -27 15 c-27 15 -35 34 -21 48 12 13 75 8 70 -5z m375 -20 c2
-18 8 -33 13 -33 6 0 11 15 13 33 5 52 32 42 32 -13 l0 -45 -39 0 c-42 0 -51
11 -51 61 0 41 28 39 32 -3z m108 -13 c0 -33 -4 -45 -15 -45 -11 0 -15 12 -15
45 0 33 4 45 15 45 11 0 15 -12 15 -45z m98 26 c3 -10 -3 -12 -27 -6 -26 6
-31 4 -31 -13 0 -26 10 -33 31 -22 22 13 34 -3 14 -20 -18 -15 -55 -9 -68 11
-5 9 -7 28 -3 43 6 24 11 27 43 24 20 -2 38 -9 41 -17z m292 -26 c0 -33 -4
-45 -15 -45 -11 0 -15 12 -15 45 0 33 4 45 15 45 11 0 15 -12 15 -45z m105 0
c0 -36 -3 -40 -27 -43 -16 -2 -28 -9 -28 -18 0 -8 -7 -14 -15 -14 -12 0 -15
13 -15 61 l0 60 43 -3 c42 -3 42 -3 42 -43z m95 30 c0 -11 -7 -14 -27 -10 -26
6 -25 5 5 -9 35 -17 39 -27 18 -46 -18 -14 -58 -10 -64 8 -3 9 4 11 25 8 l28
-6 -27 12 c-19 8 -28 19 -28 35 0 20 5 23 35 23 25 0 35 -4 35 -15z m-9586
-394 c3 -4 -6 -6 -19 -3 -24 4 -25 2 -25 -46 0 -46 2 -51 25 -55 23 -4 23 -4
-2 -3 -27 1 -28 3 -31 59 -3 55 -2 57 22 57 14 0 27 -4 30 -9z m64 -18 c-10
-2 -26 -2 -35 0 -10 3 -2 5 17 5 19 0 27 -2 18 -5z m-2055 -10 c-7 -2 -13 -20
-13 -39 0 -19 -4 -34 -10 -34 -5 0 -10 13 -10 28 0 15 -5 33 -12 40 -9 9 -4
12 23 11 18 0 28 -3 22 -6z m65 0 c-22 -5 -24 -23 -3 -23 8 0 15 -4 15 -10 0
-5 -7 -10 -15 -10 -21 0 -19 -18 3 -23 10 -3 6 -5 -10 -6 -26 -1 -28 2 -28 39
0 37 2 40 28 39 16 -1 20 -3 10 -6z m88 -29 c15 -36 11 -61 -6 -34 -8 13 -13
13 -31 2 -19 -12 -21 -12 -15 3 3 9 9 28 12 41 9 34 23 30 40 -12z m60 9 l11
-28 13 28 c19 39 30 33 29 -15 -1 -35 -2 -38 -8 -18 l-7 25 -8 -22 c-4 -13
-11 -23 -16 -23 -5 0 -12 10 -16 23 l-8 22 -7 -25 c-6 -20 -7 -17 -8 18 -1 48
10 55 25 15z m144 15 c-25 -11 -25 -11 -2 -15 27 -5 30 -23 3 -23 -11 0 -22
-8 -24 -17 -3 -10 -5 1 -6 25 -1 40 1 42 27 41 l27 0 -25 -11z m105 -28 c0
-32 -2 -35 -30 -35 -24 0 -31 5 -33 23 -5 30 16 54 42 50 17 -2 21 -10 21 -38z
m68 -33 c18 -4 17 -5 -5 -6 -27 -1 -28 1 -26 42 l1 42 4 -37 c3 -28 9 -38 26
-41z m85 64 c8 -5 12 -21 10 -37 -2 -25 -8 -29 -35 -32 -31 -3 -33 -2 -33 31
0 18 3 37 7 40 9 9 35 8 51 -2z m70 2 c-22 -5 -24 -23 -3 -23 8 0 15 -4 15
-10 0 -5 -7 -10 -15 -10 -21 0 -19 -18 3 -23 10 -3 6 -5 -10 -6 -26 -1 -28 2
-28 39 0 37 2 40 28 39 16 -1 20 -3 10 -6z m89 -36 c1 -37 0 -38 -18 -21 -17
16 -19 16 -19 1 0 -10 -4 -17 -10 -17 -11 0 -14 63 -3 74 4 4 16 6 28 4 16 -2
20 -11 22 -41z m79 32 c4 -8 0 -9 -15 -4 -12 3 -21 2 -21 -4 0 -5 9 -13 20
-16 30 -9 26 -45 -4 -45 -14 0 -28 5 -32 11 -4 8 0 9 15 4 27 -8 27 2 -1 24
-12 10 -18 23 -14 29 9 15 43 15 52 1z m1210 -65 c-13 -14 -27 2 -19 22 4 10
8 10 17 1 9 -8 10 -14 2 -23z m1944 17 c0 -5 -6 -9 -12 -8 -31 1 -46 -4 -51
-16 -4 -10 3 -12 23 -9 36 5 70 -13 70 -38 0 -10 5 -22 10 -25 15 -9 12 22 -6
56 -8 17 -13 33 -10 36 10 10 55 -46 66 -84 22 -74 -25 -139 -110 -150 -33 -5
-40 -3 -40 11 0 12 6 15 24 10 17 -4 30 1 45 17 11 13 21 26 21 30 0 4 2 13 5
21 4 10 -6 14 -41 16 -64 2 -75 -9 -67 -66 l6 -46 -34 21 c-80 51 -72 181 14
218 36 16 87 19 87 6z m288 -37 c26 -27 32 -42 32 -76 0 -66 -59 -148 -61 -85
l0 22 -12 -23 c-9 -20 -17 -23 -48 -20 -26 2 -35 0 -32 -9 7 -17 -2 -16 -37 2
-33 17 -35 24 -20 75 6 23 6 47 -1 73 -10 39 -1 67 24 67 7 0 7 -4 -1 -12 -14
-14 -15 -57 -2 -78 8 -12 11 -13 19 -1 5 7 6 21 4 31 -6 23 39 54 68 47 20 -5
20 -5 2 15 -18 20 -18 21 7 14 14 -4 40 -23 58 -42z m170 40 c12 -4 22 -12 22
-19 0 -8 9 -17 20 -20 21 -7 52 -66 45 -88 -2 -6 -6 -23 -9 -37 -5 -25 -46
-41 -46 -18 0 6 -6 5 -16 -3 -14 -12 -13 -14 7 -21 19 -7 21 -11 9 -18 -26
-17 -97 -23 -119 -10 -22 11 -22 19 -4 68 3 7 -3 12 -13 13 -18 0 -17 1 1 9
11 5 15 9 9 9 -7 1 -18 21 -26 46 -14 40 -14 46 1 59 33 30 77 41 119 30z
m467 -8 c68 -29 95 -118 55 -183 -30 -50 -48 -43 -47 17 0 28 4 45 8 38 13
-20 20 -4 13 30 -10 49 -39 73 -81 68 -39 -4 -63 -27 -63 -60 0 -33 -19 -4
-22 34 -3 31 1 37 32 52 43 22 60 22 105 4z m-264 -39 c-13 -13 -26 -3 -16 12
3 6 11 8 17 5 6 -4 6 -10 -1 -17z m5759 3 c0 -5 -5 -10 -11 -10 -5 0 -7 5 -4
10 3 6 8 10 11 10 2 0 4 -4 4 -10z m-403 -30 c3 -16 9 -30 13 -30 4 0 10 14
14 30 6 32 23 40 31 15 16 -49 18 -50 28 -17 9 29 27 45 27 24 0 -19 -32 -102
-40 -102 -4 0 -11 16 -14 35 -8 41 -21 38 -31 -5 -9 -41 -22 -37 -35 11 -6 22
-14 47 -17 55 -3 8 0 14 6 14 6 0 14 -13 18 -30z m152 10 c9 0 22 -5 29 -12
14 -14 16 -78 2 -78 -5 0 -10 16 -10 36 0 49 -32 44 -41 -6 -5 -28 -6 -22 -7
25 0 33 2 54 5 48 2 -7 12 -13 22 -13z m173 -18 c-14 -4 -16 -52 -2 -52 6 0
10 -4 10 -10 0 -16 -27 -11 -34 6 -8 20 -8 79 0 87 4 3 14 -1 23 -10 11 -12
13 -17 3 -21z m266 31 c-20 -3 -28 -10 -28 -24 0 -14 7 -19 28 -20 l27 -2 -27
-4 c-35 -5 -37 -33 -3 -33 14 0 25 -4 25 -10 0 -5 -16 -10 -35 -10 l-35 0 0
55 0 55 38 -1 c30 -2 32 -3 10 -6z m452 -15 c-1 -23 -21 -58 -34 -58 -12 0 -6
28 9 40 11 9 13 16 6 23 -7 7 -15 6 -26 -3 -8 -7 -15 -8 -15 -3 0 16 12 23 37
23 17 0 23 -6 23 -22z m-6407 -5 c-7 -2 -19 -2 -25 0 -7 3 -2 5 12 5 14 0 19
-2 13 -5z m5635 -41 l3 -43 -33 3 c-25 2 -33 8 -33 23 0 13 8 21 23 23 12 2
22 8 22 14 0 6 -9 8 -20 5 -11 -3 -20 -2 -20 2 0 14 14 22 35 19 16 -2 21 -12
23 -46z m132 2 c0 -27 -4 -43 -10 -39 -17 11 -11 85 7 85 2 0 3 -21 3 -46z
m77 29 c3 -7 -3 -9 -16 -6 -12 3 -21 1 -21 -6 0 -6 6 -11 14 -11 24 0 38 -26
22 -39 -18 -15 -48 -11 -54 7 -3 11 0 12 16 3 14 -7 23 -8 27 -1 3 6 -5 14
-19 20 -27 10 -35 35 -13 43 18 8 40 3 44 -10z m193 7 c0 -4 -6 -10 -14 -13
-8 -3 -16 -21 -19 -39 -3 -27 -4 -25 -5 12 -2 39 1 46 18 47 11 1 20 -2 20 -7z
m68 -2 c7 -7 12 -27 12 -46 0 -32 -2 -33 -32 -30 -25 2 -33 8 -33 23 0 13 8
21 23 23 12 2 22 8 22 14 0 6 -10 8 -25 4 -25 -6 -36 8 -12 17 21 9 32 8 45
-5z m76 6 c26 -10 18 -25 -9 -18 -33 8 -32 -4 1 -16 34 -13 29 -44 -9 -48 -20
-3 -27 1 -27 14 0 13 3 14 14 5 10 -9 16 -9 21 -1 4 7 -2 14 -14 17 -20 5 -28
32 -14 46 8 9 17 9 37 1z m96 -13 c15 -28 13 -31 -20 -31 -30 0 -40 -13 -20
-25 6 -4 18 -1 27 7 14 11 15 11 11 -2 -12 -36 -68 -17 -68 24 0 44 50 63 70
27z m60 9 c0 -4 -6 -10 -14 -13 -8 -3 -16 -21 -19 -39 -3 -27 -4 -25 -5 12 -2
39 1 46 18 47 11 1 20 -2 20 -7z m-6055 -10 c3 -5 1 -10 -4 -10 -6 0 -11 5
-11 10 0 6 2 10 4 10 3 0 8 -4 11 -10z m4893 -23 c4 -20 -25 -34 -40 -19 -15
15 -1 44 19 40 10 -2 19 -11 21 -21z m-5178 9 c0 -3 -4 -8 -10 -11 -5 -3 -10
-1 -10 4 0 6 5 11 10 11 6 0 10 -2 10 -4z m-10 -48 l18 -23 25 23 c24 23 26
23 56 8 17 -9 31 -21 31 -25 0 -17 -70 -76 -98 -83 -74 -20 -145 58 -96 106
22 22 43 20 64 -6z m6400 2 c0 -5 -4 -10 -10 -10 -5 0 -10 5 -10 10 0 6 5 10
10 10 6 0 10 -4 10 -10z m-6220 -35 c30 -48 9 -75 -31 -39 -14 13 -15 20 -6
45 6 16 12 29 13 29 1 0 12 -16 24 -35z m-830 17 c0 -4 -11 -9 -26 -10 -14 -1
-23 2 -19 8 7 12 45 14 45 2z m6813 -29 c-150 -2 -396 -2 -545 0 -150 1 -28 2
272 2 300 0 422 -1 273 -2z m-712 -130 c6 -17 6 -36 0 -54 -5 -15 -7 -30 -3
-33 12 -12 -63 7 -77 19 -17 16 -18 60 -1 80 7 8 26 15 41 15 23 0 32 -6 40
-27z m129 23 c0 -3 -4 -8 -10 -11 -5 -3 -10 -1 -10 4 0 6 5 11 10 11 6 0 10
-2 10 -4z m110 -28 c0 -30 0 -31 20 -13 11 10 22 16 25 13 3 -3 -1 -11 -10
-18 -14 -12 -14 -15 1 -31 10 -11 14 -22 10 -27 -4 -4 -13 1 -20 11 -16 21
-26 22 -26 2 0 -8 -4 -15 -10 -15 -5 0 -10 25 -10 55 0 30 5 55 10 55 6 0 10
-14 10 -32z m169 -6 c-13 -5 -11 -46 3 -60 9 -9 9 -12 -4 -12 -11 0 -17 13
-21 42 -7 49 -1 63 18 45 7 -6 9 -13 4 -15z m200 0 c-13 -5 -11 -46 3 -60 9
-9 8 -12 -5 -12 -12 0 -17 8 -17 29 0 17 -5 33 -10 36 -8 5 -7 11 0 20 9 11
15 12 25 2 7 -7 9 -13 4 -15z m-567 -24 c2 -18 8 -33 13 -33 6 0 11 15 13 33
5 46 22 40 22 -9 0 -39 -1 -40 -32 -37 -30 3 -33 6 -36 41 -2 20 1 37 7 37 5
0 11 -15 13 -32z m75 -30 c-2 -13 -4 -3 -4 22 0 25 2 35 4 23 2 -13 2 -33 0
-45z m88 52 c4 -6 -4 -9 -17 -7 -19 2 -23 -3 -23 -23 0 -20 5 -25 23 -23 12 2
22 -2 22 -7 0 -6 -13 -10 -29 -10 -33 0 -47 25 -36 60 7 21 49 28 60 10z m161
-1 c4 -7 0 -9 -14 -5 -11 4 -23 3 -26 -3 -3 -5 6 -12 20 -15 17 -5 24 -12 22
-24 -4 -20 -46 -29 -62 -12 -8 9 -4 10 17 5 16 -4 27 -3 27 3 0 5 -9 12 -20
15 -30 8 -27 47 4 47 14 0 28 -5 32 -11z m134 -29 c0 -38 -2 -40 -29 -40 -17
0 -33 5 -36 10 -9 15 14 40 37 40 11 0 16 5 13 10 -4 6 -15 8 -26 5 -11 -4
-19 -2 -19 4 0 6 14 11 30 11 28 0 30 -2 30 -40z m52 28 c-7 -7 -12 -25 -12
-40 0 -15 -4 -28 -10 -28 -5 0 -10 18 -10 40 0 35 3 40 22 40 17 0 19 -3 10
-12z m-814 -26 c3 -16 -2 -22 -17 -22 -26 0 -36 17 -20 36 16 19 33 13 37 -14z
m705 -79 c-101 -2 -265 -2 -365 0 -101 1 -19 2 182 2 201 0 283 -1 183 -2z
m-3604 -74 c-12 -8 -11 -11 1 -19 10 -6 11 -10 3 -10 -8 0 -13 -14 -13 -35 0
-19 -4 -35 -10 -35 -9 0 -15 54 -10 90 2 18 21 31 33 23 5 -3 3 -9 -4 -14z
m-3079 -44 c0 -30 -4 -55 -10 -55 -11 0 -14 93 -3 103 12 12 13 8 13 -48z
m210 51 c0 -3 -4 -8 -10 -11 -5 -3 -10 -1 -10 4 0 6 5 11 10 11 6 0 10 -2 10
-4z m1890 -11 c0 -9 9 -15 24 -15 23 0 36 -21 36 -62 0 -32 -19 -19 -22 15 -2
20 -8 32 -18 32 -10 0 -16 -12 -18 -32 -5 -54 -22 -37 -22 22 0 30 5 55 10 55
6 0 10 -7 10 -15z m1110 5 c0 -5 -11 -10 -25 -10 -32 0 -34 -29 -2 -31 l22 -2
-22 -4 c-34 -6 -30 -41 5 -46 22 -3 20 -4 -10 -6 l-38 -1 0 55 0 55 35 0 c19
0 35 -4 35 -10z m390 -5 c0 -9 -11 -20 -25 -25 -19 -7 -25 -17 -25 -40 0 -16
-4 -30 -10 -30 -5 0 -10 18 -10 40 0 36 3 40 24 40 13 0 26 7 30 15 7 19 16
19 16 0z m790 5 c0 -5 -2 -10 -4 -10 -3 0 -8 5 -11 10 -3 6 -1 10 4 10 6 0 11
-4 11 -10z m-4139 -7 c5 -58 2 -93 -7 -93 -11 0 -23 68 -16 89 4 12 22 15 23
4z m526 -34 c-9 -15 -9 -23 1 -39 10 -16 10 -20 -2 -20 -9 0 -16 14 -18 38 -6
48 0 66 18 51 10 -8 11 -15 1 -30z m564 34 c5 -58 2 -93 -7 -93 -11 0 -23 68
-16 89 4 12 22 15 23 4z m255 -35 c-8 -13 -8 -23 2 -38 10 -16 10 -20 -2 -20
-9 0 -16 14 -18 38 -6 48 -1 65 17 49 9 -9 9 -16 1 -29z m361 1 c-9 -15 -9
-23 1 -39 10 -17 10 -20 -3 -20 -10 0 -15 10 -15 35 0 19 -5 35 -10 35 -6 0
-5 6 2 14 20 21 41 0 25 -25z m99 26 c9 -8 11 -15 5 -15 -15 0 -14 -43 2 -59
10 -10 8 -12 -8 -9 -14 2 -22 14 -25 38 -6 34 -3 60 7 60 2 0 11 -7 19 -15z
m561 -26 c-9 -15 -9 -23 1 -39 10 -16 10 -20 -2 -20 -9 0 -16 14 -18 38 -6 48
0 66 18 51 10 -8 11 -15 1 -30z m269 -1 c-8 -13 -8 -23 2 -38 10 -17 10 -20
-3 -20 -10 0 -15 10 -15 29 0 17 -4 33 -10 36 -6 4 -5 11 2 19 18 19 39 -3 24
-26z m1461 1 c-9 -15 -9 -23 1 -39 10 -17 10 -20 -3 -20 -10 0 -15 10 -15 29
0 17 -4 33 -10 36 -6 4 -5 11 3 20 19 21 40 -1 24 -26z m-4259 -21 c2 -22 -1
-38 -7 -38 -6 0 -11 16 -11 36 0 45 -24 42 -28 -4 -5 -46 -22 -39 -22 9 0 39
1 40 33 37 29 -3 32 -6 35 -40z m40 15 l10 -28 11 28 c6 15 15 27 21 27 6 0 4
-15 -5 -37 -19 -45 -23 -49 -34 -37 -14 15 -31 74 -21 74 4 0 13 -12 18 -27z
m78 -18 c2 -19 -1 -35 -6 -35 -6 0 -10 19 -10 42 0 49 12 43 16 -7z m138 29
c11 -28 7 -34 -25 -34 -19 0 -28 -4 -23 -11 3 -6 17 -8 31 -4 16 4 22 2 18 -5
-3 -5 -19 -10 -35 -10 -23 0 -31 5 -36 25 -4 15 -1 32 6 40 16 20 56 19 64 -1z
m83 -11 l10 -28 8 28 c4 15 11 27 16 27 13 0 11 -12 -7 -56 -20 -48 -34 -65
-46 -58 -5 3 -2 11 7 18 14 10 14 15 0 48 -17 43 -18 48 -7 48 5 0 13 -12 19
-27z m123 12 c7 -8 10 -25 6 -40 -8 -33 -61 -36 -71 -5 -16 49 33 83 65 45z
m42 -17 c2 -18 8 -33 13 -33 6 0 11 15 13 33 5 46 22 40 22 -9 0 -39 -1 -40
-32 -37 -30 3 -33 6 -36 41 -2 20 1 37 7 37 5 0 11 -15 13 -32z m96 20 c-9 -7
-19 -26 -21 -43 -3 -24 -4 -21 -6 13 -1 37 2 42 21 42 19 0 20 -1 6 -12z m186
-4 c11 -28 7 -34 -25 -34 -19 0 -28 -4 -23 -11 3 -6 17 -8 31 -4 16 4 22 2 18
-5 -3 -5 -17 -10 -30 -10 -31 0 -50 32 -35 60 13 24 55 27 64 4z m84 -26 c3
-37 3 -38 -32 -38 -29 0 -36 4 -36 20 0 13 9 22 25 26 14 3 25 10 25 15 0 5
-12 6 -26 3 -20 -5 -25 -4 -20 5 5 7 20 11 34 9 23 -3 27 -8 30 -40z m130 0
c2 -22 -1 -38 -7 -38 -6 0 -11 16 -11 36 0 45 -24 42 -28 -4 -4 -44 -22 -40
-22 4 0 46 -23 41 -31 -7 -6 -33 -6 -33 -8 9 l-1 43 53 -3 52 -3 3 -37z m124
28 c11 -16 10 -66 -1 -66 -6 0 -11 15 -13 33 -2 17 -7 32 -13 32 -5 0 -11 -15
-13 -32 -4 -45 -22 -42 -22 3 0 45 -24 42 -28 -4 -5 -46 -22 -39 -22 8 l0 40
53 -1 c28 -1 55 -7 59 -13z m86 -29 c3 -38 3 -38 -30 -35 -42 4 -51 34 -14 44
14 3 26 10 26 15 0 5 -12 6 -26 3 -20 -5 -25 -4 -20 5 5 7 20 11 34 9 23 -3
27 -8 30 -41z m140 16 c3 -20 -1 -23 -28 -23 -20 0 -29 -4 -24 -11 3 -6 17 -8
31 -4 16 4 22 2 18 -5 -11 -18 -54 -11 -65 10 -16 31 4 62 38 58 19 -2 28 -10
30 -25z m72 16 c0 -5 -4 -7 -10 -4 -5 3 -15 3 -21 -1 -7 -4 -2 -11 13 -18 12
-6 23 -18 23 -26 0 -19 -43 -26 -59 -10 -8 9 -4 10 17 5 17 -5 27 -3 27 4 0 6
-6 11 -13 11 -19 0 -36 20 -30 36 6 16 53 19 53 3z m185 -29 c0 -32 -2 -35
-30 -35 -24 0 -31 5 -33 23 -6 38 5 54 35 50 25 -3 28 -7 28 -38z m135 -9 c0
-54 -17 -77 -50 -66 -29 9 -25 23 5 17 15 -2 25 0 25 7 0 6 -8 11 -18 11 -22
0 -42 19 -42 40 0 24 21 40 52 40 27 0 28 -2 28 -49z m84 33 c11 -28 7 -34
-25 -34 -19 0 -28 -4 -23 -11 3 -6 17 -8 31 -4 16 4 22 2 18 -5 -3 -5 -17 -10
-30 -10 -31 0 -50 32 -35 60 13 24 55 27 64 4z m324 -11 c3 -19 -1 -23 -22
-23 -14 0 -26 -5 -26 -11 0 -7 10 -9 28 -4 20 5 24 4 16 -5 -19 -20 -59 -8
-62 18 -6 38 5 54 35 50 20 -2 29 -9 31 -25z m170 -15 c2 -22 -1 -38 -7 -38
-6 0 -11 16 -11 35 0 19 -4 35 -10 35 -12 0 -24 -45 -15 -59 3 -6 -1 -11 -9
-11 -12 0 -16 10 -16 35 0 19 -4 35 -10 35 -5 0 -10 -16 -10 -35 0 -19 -4 -35
-10 -35 -5 0 -10 18 -10 41 l0 40 53 -3 52 -3 3 -37z m87 22 c11 -35 -3 -60
-35 -60 -23 0 -31 5 -36 25 -4 15 -1 32 6 40 18 22 57 19 65 -5z m75 11 c0 -5
-9 -7 -20 -4 -27 7 -25 -10 3 -22 12 -6 22 -17 22 -25 0 -18 -43 -26 -59 -10
-8 9 -4 10 17 5 17 -5 27 -3 27 4 0 6 -6 11 -14 11 -18 0 -39 27 -31 40 8 12
55 14 55 1z m188 -28 c4 -41 -24 -60 -56 -37 -40 28 -20 78 28 72 20 -2 26 -9
28 -35z m34 5 c4 -46 31 -44 39 2 l6 35 2 -42 c1 -41 0 -43 -28 -43 -30 0 -41
14 -41 56 0 36 18 29 22 -8z m233 -8 c0 -29 -4 -36 -23 -38 -43 -6 -69 37 -40
66 7 7 24 12 38 10 21 -3 25 -8 25 -38z m237 31 c-8 -5 -18 -24 -22 -42 l-8
-34 -1 43 c-1 37 2 42 22 42 16 0 18 -3 9 -9z m86 -33 c3 -37 3 -38 -32 -38
-29 0 -36 4 -36 20 0 13 9 22 25 26 14 3 22 10 19 15 -3 6 -15 7 -26 3 -14 -4
-18 -3 -13 6 4 6 19 10 33 8 23 -3 27 -8 30 -40z m78 31 c4 -7 0 -9 -14 -5
-11 4 -23 3 -26 -3 -3 -5 5 -12 19 -15 14 -4 25 -13 25 -21 0 -17 -30 -34 -47
-28 -21 8 -15 22 7 16 11 -3 20 -1 20 5 0 5 -9 12 -20 15 -30 8 -27 47 4 47
14 0 28 -5 32 -11z m84 -4 c16 -19 4 -35 -26 -35 -15 0 -23 -4 -19 -10 4 -6
15 -8 26 -5 11 4 19 2 19 -4 0 -6 -14 -11 -30 -11 -34 0 -45 17 -36 55 7 29
45 35 66 10z m150 4 c0 -6 -9 -8 -20 -4 -27 9 -25 -8 3 -20 12 -6 22 -17 22
-25 0 -18 -43 -26 -59 -10 -8 9 -4 10 17 5 17 -5 27 -3 27 4 0 6 -6 11 -14 11
-18 0 -39 27 -31 40 8 13 55 13 55 -1z m125 1 c4 -6 -4 -9 -17 -7 -19 2 -24
-3 -26 -27 -3 -27 -2 -28 25 -22 21 6 25 5 17 -4 -19 -20 -59 -8 -62 18 -2 13
-1 30 2 38 6 16 52 19 61 4z m85 -5 c7 -8 10 -25 6 -40 -5 -20 -13 -25 -36
-25 -23 0 -31 5 -36 25 -7 29 10 55 36 55 10 0 23 -7 30 -15z m138 -27 c2 -21
-1 -38 -7 -38 -5 0 -11 15 -13 33 -2 17 -7 32 -13 32 -5 0 -11 -15 -13 -32 -4
-45 -22 -42 -22 3 0 45 -24 42 -28 -4 -5 -46 -22 -39 -22 8 l0 41 58 -3 57 -3
3 -37z m121 0 c-2 -43 -2 -43 -8 -9 -8 48 -31 53 -31 7 0 -44 -18 -48 -22 -4
-4 46 -28 49 -28 4 0 -20 -4 -36 -10 -36 -5 0 -10 18 -10 40 l0 40 55 0 55 0
-1 -42z m89 15 c3 -19 -1 -23 -22 -23 -14 0 -26 -5 -26 -11 0 -7 10 -9 28 -4
20 5 24 4 16 -5 -19 -20 -59 -8 -62 18 -6 38 5 54 35 50 20 -2 29 -9 31 -25z
m81 -15 l-2 -43 -6 35 c-8 46 -35 48 -39 3 -5 -47 -22 -41 -22 7 0 39 1 40 35
40 35 0 35 0 34 -42z m88 -20 c-2 -13 -4 -3 -4 22 0 25 2 35 4 23 2 -13 2 -33
0 -45z m91 20 c2 -21 -1 -38 -7 -38 -5 0 -11 15 -13 33 -2 17 -7 32 -13 32 -5
0 -11 -15 -13 -32 -5 -47 -22 -41 -22 8 0 39 1 40 33 37 29 -3 32 -6 35 -40z
m92 -7 c0 -54 -17 -77 -50 -66 -29 9 -25 23 5 17 15 -2 25 0 25 7 0 6 -8 11
-18 11 -22 0 -42 19 -42 40 0 24 21 40 52 40 27 0 28 -2 28 -49z m1602 -16 c2
-32 7 -40 23 -40 16 0 21 8 23 40 5 62 22 68 22 7 0 -42 -4 -53 -21 -63 -16
-8 -28 -8 -45 0 -21 9 -24 18 -24 63 0 60 17 55 22 -7z m143 15 c3 -6 -4 -10
-17 -11 l-23 0 23 -11 c40 -20 19 -68 -23 -52 -22 9 -18 23 5 17 11 -3 20 0
20 6 0 6 -6 11 -14 11 -19 0 -29 17 -22 35 6 17 42 20 51 5z m85 -9 c15 -28
13 -31 -20 -31 -16 0 -30 -5 -30 -11 0 -7 10 -9 25 -7 27 6 34 -6 10 -16 -23
-9 -45 4 -51 30 -12 46 44 75 66 35z m127 3 c2 -7 -6 -10 -22 -7 -22 5 -25 2
-25 -22 0 -24 3 -26 25 -21 27 7 35 -8 9 -18 -40 -15 -72 42 -42 72 15 15 50
12 55 -4z m81 -26 c3 -30 -1 -38 -18 -43 -20 -6 -50 9 -50 26 0 5 12 15 28 23
26 15 26 15 4 16 -14 0 -20 4 -17 11 4 5 17 9 28 7 17 -2 23 -11 25 -40z m77
32 c3 -6 -4 -10 -17 -11 l-23 0 23 -11 c39 -19 24 -66 -18 -53 -26 8 -26 25 0
18 11 -3 20 0 20 6 0 6 -6 11 -14 11 -19 0 -29 17 -22 35 6 17 42 20 51 5z
m83 -2 c22 -22 13 -38 -19 -38 -19 0 -28 -4 -23 -11 3 -6 15 -9 25 -6 20 5 26
-7 9 -18 -18 -11 -50 6 -56 31 -11 42 34 72 64 42z m82 2 c0 -5 -10 -10 -22
-10 -22 -1 -21 -2 5 -16 15 -8 27 -18 27 -23 0 -17 -30 -32 -50 -26 -29 9 -25
27 5 19 14 -3 25 -2 25 4 0 5 -11 13 -25 16 -24 6 -33 25 -18 39 10 11 53 8
53 -3z m-870 -30 c0 -24 -26 -38 -42 -22 -16 16 -2 42 22 42 13 0 20 -7 20
-20z m703 -87 c-101 -2 -265 -2 -365 0 -101 1 -19 2 182 2 201 0 283 -1 183
-2z m-6453 -69 c0 -37 -4 -46 -22 -53 -29 -11 -58 4 -58 29 0 34 12 50 36 50
15 0 24 6 24 16 0 8 5 12 10 9 6 -3 10 -26 10 -51z m300 -5 c0 -27 -4 -49 -10
-49 -5 0 -10 25 -10 56 0 34 4 53 10 49 6 -3 10 -28 10 -56z m90 57 c0 -3 -4
-8 -10 -11 -5 -3 -10 -1 -10 4 0 6 5 11 10 11 6 0 10 -2 10 -4z m500 -51 c0
-30 -4 -55 -10 -55 -5 0 -10 25 -10 55 0 30 5 55 10 55 6 0 10 -25 10 -55z
m90 45 c0 -5 -4 -10 -10 -10 -5 0 -10 5 -10 10 0 6 5 10 10 10 6 0 10 -4 10
-10z m120 -45 c0 -30 -4 -55 -10 -55 -11 0 -14 93 -3 103 12 12 13 8 13 -48z
m402 46 c-7 -4 -12 -12 -11 -17 4 -26 -2 -84 -10 -84 -10 0 -20 67 -13 93 2 9
14 17 26 17 15 0 17 -3 8 -9z m-1166 -43 c-8 -13 -8 -23 2 -38 16 -25 15 -31
-2 -24 -14 5 -27 68 -19 91 4 9 8 9 18 0 9 -9 9 -16 1 -29z m600 27 c9 -8 11
-15 5 -15 -15 0 -14 -57 2 -64 6 -3 3 -5 -8 -3 -14 2 -22 12 -25 37 -6 34 -3
60 7 60 2 0 11 -7 19 -15z m775 8 c5 -58 2 -93 -7 -93 -12 0 -24 66 -16 88 5
13 22 17 23 5z m-1893 -54 c3 -31 -1 -37 -19 -42 -25 -7 -49 8 -49 29 0 8 11
16 25 20 14 3 25 10 25 16 0 5 -9 6 -20 3 -12 -4 -20 -2 -20 5 0 6 12 10 28 8
23 -3 27 -8 30 -39z m86 19 c9 -34 7 -58 -4 -58 -5 0 -10 13 -10 28 0 34 -7
43 -26 35 -8 -3 -14 -18 -14 -34 0 -16 -4 -29 -10 -29 -5 0 -10 18 -10 40 0
39 1 40 34 40 26 0 35 -5 40 -22z m183 4 c-9 -10 -15 -28 -12 -40 2 -12 0 -22
-6 -22 -5 0 -9 18 -9 40 0 34 3 40 22 40 20 0 20 -1 5 -18z m91 -9 c3 -20 -1
-23 -28 -23 -20 0 -29 -4 -24 -11 3 -6 18 -8 33 -5 24 6 25 5 7 -8 -35 -28
-77 15 -55 55 15 29 63 22 67 -8z m80 -14 c3 -31 0 -37 -20 -42 -32 -9 -56 16
-38 37 7 9 19 16 26 16 8 0 14 5 14 11 0 6 -9 8 -20 4 -12 -4 -20 -2 -20 5 0
6 12 10 28 8 23 -3 27 -8 30 -39z m119 -21 c-2 -13 -4 -3 -4 22 0 25 2 35 4
23 2 -13 2 -33 0 -45z m135 48 c11 -16 10 -66 -1 -66 -6 0 -11 15 -13 33 -2
17 -7 32 -13 32 -5 0 -11 -15 -13 -32 -2 -18 -7 -33 -12 -33 -5 0 -10 15 -12
33 -2 17 -7 32 -13 32 -5 0 -11 -15 -13 -32 -5 -47 -22 -41 -22 7 l0 40 53 -1
c28 -1 55 -7 59 -13z m86 -13 c3 -20 -1 -23 -28 -23 -20 0 -29 -4 -24 -11 3
-6 17 -8 30 -5 13 4 24 2 24 -3 0 -13 -35 -20 -54 -9 -16 9 -22 58 -9 72 4 4
19 6 33 4 17 -2 26 -10 28 -25z m170 -15 c2 -22 -1 -38 -7 -38 -6 0 -11 13
-11 29 0 17 -4 33 -10 36 -9 6 -11 0 -14 -44 -1 -8 -7 -16 -14 -19 -8 -2 -12
8 -12 33 0 21 -4 34 -10 30 -5 -3 -10 -19 -10 -36 0 -16 -4 -29 -10 -29 -5 0
-10 18 -10 40 l0 40 53 -3 52 -2 3 -37z m52 -23 c10 0 16 12 18 33 5 46 22 40
22 -8 0 -39 -1 -40 -35 -40 -35 0 -35 0 -34 43 l2 42 6 -35 c4 -22 12 -35 21
-35z m160 25 c0 -22 -4 -40 -10 -40 -5 0 -10 18 -10 40 0 22 5 40 10 40 6 0
10 -18 10 -40z m88 5 c4 -31 -20 -58 -43 -49 -8 4 -15 -4 -18 -18 -2 -13 -5 5
-6 40 l-1 63 33 -3 c27 -3 32 -7 35 -33z m116 19 c13 -33 6 -62 -15 -67 -29
-8 -49 2 -49 24 0 12 9 21 25 25 14 3 23 10 20 14 -3 5 -15 6 -27 2 -14 -3
-19 -2 -14 6 11 17 53 14 60 -4z m43 -11 l10 -28 8 28 c4 15 11 27 16 27 13 0
11 -13 -10 -63 -20 -46 -37 -64 -49 -52 -4 3 1 11 11 16 15 9 16 13 2 46 -17
40 -19 53 -7 53 5 0 13 -12 19 -27z m121 0 c3 -19 -1 -23 -22 -23 -14 0 -26
-5 -26 -11 0 -7 10 -9 25 -7 27 6 34 -6 9 -16 -37 -14 -65 25 -48 69 10 25 58
16 62 -12z m53 14 c-6 -8 -12 -23 -14 -35 -6 -40 -17 -36 -17 6 0 36 3 42 21
42 17 0 19 -3 10 -13z m177 1 c21 -21 13 -38 -18 -38 -16 0 -30 -5 -30 -11 0
-7 10 -9 25 -7 27 6 34 -6 9 -16 -24 -9 -54 12 -54 37 0 27 17 47 40 47 9 0
21 -5 28 -12z m86 -4 c13 -33 6 -62 -15 -67 -29 -8 -49 2 -49 24 0 12 9 21 25
25 14 3 22 10 19 15 -3 6 -15 7 -26 3 -14 -4 -18 -2 -14 5 11 17 53 13 60 -5z
m92 -20 c2 -14 5 -28 8 -31 11 -11 26 10 26 38 0 16 5 29 10 29 6 0 10 -17 10
-39 0 -32 -4 -39 -23 -43 -38 -7 -47 1 -47 45 0 43 11 44 16 1z m102 25 c-11
-6 -18 -22 -18 -39 0 -17 -4 -30 -10 -30 -5 0 -10 18 -10 40 0 37 2 40 28 40
23 -1 24 -2 10 -11z m81 -8 c12 -22 5 -31 -26 -31 -15 0 -22 -4 -17 -11 3 -6
15 -9 25 -6 22 6 26 -8 4 -17 -23 -9 -45 4 -51 30 -12 46 44 75 65 35z m77 7
c5 -8 2 -9 -9 -5 -27 10 -28 -9 -2 -21 14 -7 25 -16 25 -21 0 -15 -36 -32 -54
-25 -27 10 -18 25 12 19 26 -6 26 -6 8 9 -10 8 -24 17 -29 19 -6 2 -8 11 -4
20 7 19 42 23 53 5z m3921 -570 c44 -41 18 -108 -42 -108 -43 0 -65 22 -65 65
0 59 63 85 107 43z m-5953 3 c7 -11 -34 -111 -45 -111 -11 0 -30 35 -24 44 3
3 2 4 -1 1 -9 -6 -44 14 -44 25 0 9 75 48 97 49 6 1 14 -3 17 -8z m7431 -56
c0 -70 -5 -79 -23 -40 -15 32 -15 46 -2 79 16 43 25 29 25 -39z m-7337 5 c-3
-55 -22 -69 -24 -18 -1 41 6 68 18 68 5 0 8 -23 6 -50z m192 0 c0 -56 -17 -68
-23 -17 l-3 32 -13 -32 c-15 -37 -36 -43 -46 -13 -3 11 -10 20 -15 20 -5 0 -7
-9 -5 -20 2 -13 -2 -20 -11 -20 -8 0 -14 10 -14 25 0 14 -4 25 -10 25 -5 0
-10 -11 -10 -25 0 -16 -6 -25 -16 -25 -11 0 -14 9 -12 37 2 30 7 37 28 40 15
2 30 -3 37 -14 12 -16 13 -16 13 0 0 25 17 21 26 -5 l7 -23 8 23 c7 18 14 22
29 17 15 -5 18 -3 14 9 -3 9 -1 16 5 16 7 0 11 -20 11 -50z m260 40 c0 -5 -6
-10 -14 -10 -10 0 -16 -14 -18 -42 -4 -54 -23 -52 -21 2 1 28 -3 40 -13 40 -8
0 -14 5 -14 10 0 6 18 10 40 10 22 0 40 -4 40 -10z m352 -15 c6 -14 15 -25 19
-25 5 0 11 11 15 25 3 14 12 25 20 25 10 0 14 -15 14 -55 0 -59 -5 -68 -20
-32 -7 17 -9 18 -9 5 -1 -10 -8 -18 -16 -18 -7 0 -19 8 -24 18 -10 16 -10 16
-11 0 0 -10 -7 -18 -15 -18 -11 0 -15 11 -15 43 0 62 21 78 42 32z m308 15 c0
-5 9 -10 20 -10 10 0 23 -8 28 -17 9 -16 11 -16 27 0 22 23 41 21 60 -5 15
-21 16 -21 13 -3 -3 18 3 20 51 20 35 0 56 -5 59 -12 2 -7 -5 -13 -15 -14 -15
0 -14 -2 5 -9 12 -5 22 -13 22 -18 0 -14 -23 -32 -41 -32 -21 0 -38 22 -21 28
8 2 8 8 -2 18 -22 21 -36 17 -36 -12 0 -21 -4 -25 -20 -21 -11 3 -23 1 -26 -4
-9 -15 -44 -10 -51 6 -5 14 -7 14 -23 0 -9 -8 -28 -14 -41 -12 -21 3 -24 10
-27 55 -2 32 1 52 7 52 6 0 11 -4 11 -10z m4847 -17 l10 -28 6 28 c9 35 33 35
42 0 l8 -28 6 24 c7 26 31 41 31 19 0 -24 -21 -87 -30 -93 -5 -3 -16 7 -24 22
-10 18 -15 22 -16 12 0 -9 -7 -22 -15 -29 -12 -10 -17 -7 -26 16 -17 47 -22
84 -11 84 6 0 14 -12 19 -27z m333 11 c0 -8 5 -12 10 -9 18 11 40 -15 40 -46
0 -19 -5 -29 -15 -29 -9 0 -15 9 -15 25 0 14 -4 25 -10 25 -5 0 -10 -11 -10
-25 0 -14 -4 -25 -10 -25 -5 0 -10 23 -10 50 0 28 5 50 10 50 6 0 10 -7 10
-16z m310 -40 c0 -34 -4 -53 -10 -49 -5 3 -10 28 -10 56 0 27 5 49 10 49 6 0
10 -25 10 -56z m40 35 c0 -18 2 -19 15 -9 20 17 31 5 15 -16 -11 -12 -11 -20
-2 -34 7 -11 8 -21 2 -25 -5 -3 -11 -1 -14 4 -3 5 -15 7 -26 4 -18 -5 -20 0
-20 46 0 39 4 51 15 51 9 0 15 -9 15 -21z m180 5 c0 -8 4 -13 9 -10 5 4 16 3
25 0 18 -7 23 -74 6 -74 -9 0 -15 21 -11 43 0 4 -6 7 -14 7 -10 0 -15 -10 -15
-31 0 -17 -4 -28 -10 -24 -5 3 -10 28 -10 56 0 27 5 49 10 49 6 0 10 -7 10
-16z m380 3 c0 -8 10 -13 23 -13 18 1 22 -5 25 -36 2 -22 -1 -38 -7 -38 -11 0
-15 13 -12 38 1 6 -5 12 -14 12 -10 0 -15 -10 -15 -31 0 -17 -4 -28 -10 -24
-5 3 -10 28 -10 56 0 27 5 49 10 49 6 0 10 -6 10 -13z m222 -29 c6 -53 0 -60
-40 -52 -38 8 -39 15 -11 60 28 46 46 43 51 -8z m160 -13 c-2 -30 -8 -52 -13
-49 -13 8 -8 104 5 104 7 0 10 -20 8 -55z m204 21 c6 -36 -5 -87 -22 -93 -5
-2 -9 26 -9 62 0 72 19 91 31 31z m-7549 13 c9 -9 9 -16 0 -29 -8 -14 -8 -22
2 -33 8 -10 9 -17 1 -22 -17 -10 -27 2 -33 41 -8 51 4 69 30 43z m5939 -42 c1
-39 -1 -47 -15 -45 -10 2 -18 17 -21 38 -7 45 -2 62 19 58 12 -2 16 -16 17
-51z m610 42 c3 -6 2 -15 -4 -21 -7 -7 -7 -19 -2 -34 10 -24 1 -37 -16 -26
-12 8 -25 77 -17 86 10 10 31 7 39 -5z m-6466 -18 c14 -26 -4 -71 -28 -71 -40
0 -59 59 -24 79 26 15 40 13 52 -8z m188 7 c24 -24 8 -78 -24 -78 -17 0 -44
28 -44 45 0 17 27 45 44 45 6 0 17 -5 24 -12z m80 0 c7 -7 12 -24 12 -39 0
-20 -6 -28 -25 -33 -32 -8 -45 -1 -45 25 0 11 7 19 18 20 16 1 16 2 0 6 -21 5
-23 19 -5 26 21 9 32 8 45 -5z m125 3 c12 -1 4 -71 -8 -74 -5 -1 -13 12 -16
28 l-7 30 -1 -27 c-1 -36 -31 -39 -31 -3 0 14 -4 25 -10 25 -5 0 -10 -11 -10
-25 0 -14 -4 -25 -10 -25 -11 0 -14 63 -4 73 6 5 44 4 97 -2z m235 -3 c18 -18
15 -65 -4 -72 -43 -17 -74 25 -47 63 16 24 33 27 51 9z m125 3 c12 -1 4 -71
-8 -72 -5 0 -12 13 -14 28 l-4 28 -6 -30 c-4 -16 -11 -30 -16 -30 -5 0 -13 14
-16 30 l-7 30 -1 -27 c-2 -42 -31 -37 -31 5 0 19 3 37 6 40 6 5 44 4 97 -2z
m5045 -3 c7 -7 12 -24 12 -39 0 -20 -6 -28 -25 -33 -32 -8 -45 -1 -45 25 0 11
7 19 18 20 16 1 16 2 -1 6 -14 4 -16 8 -6 19 14 17 31 18 47 2z m132 -3 c11
-13 8 -15 -14 -15 -17 0 -26 -5 -26 -16 0 -10 7 -14 22 -12 26 4 36 -17 12
-26 -30 -11 -54 3 -54 33 0 45 35 66 60 36z m174 0 c8 21 26 19 26 -2 1 -17 1
-17 11 0 18 31 32 20 24 -20 -9 -47 -26 -59 -42 -30 -10 17 -12 18 -13 5 0
-33 -21 -29 -36 7 -16 40 -9 69 11 41 11 -14 13 -15 19 -1z m135 1 c7 -8 11
-27 9 -43 -3 -24 -8 -28 -33 -28 -24 0 -31 5 -33 23 -2 15 2 22 15 23 17 1 17
2 1 6 -21 5 -23 19 -5 26 22 9 34 7 46 -7z m371 3 c0 -8 4 -8 15 1 16 13 55 5
55 -13 0 -7 5 -4 11 6 13 23 29 13 29 -19 0 -13 5 -24 10 -24 6 0 10 11 10 24
0 14 5 28 10 31 6 3 10 -1 10 -9 0 -20 16 -21 24 -1 4 10 15 14 33 12 25 -3
28 -8 31 -46 4 -48 -12 -73 -42 -69 -14 2 -21 11 -22 26 -1 13 -7 29 -14 35
-10 9 -11 9 -6 0 4 -8 -2 -17 -18 -25 -21 -9 -29 -8 -45 6 -16 15 -19 15 -24
1 -13 -32 -67 -10 -67 27 0 10 -4 18 -10 18 -5 0 -10 -11 -10 -25 0 -16 -6
-25 -15 -25 -10 0 -15 10 -15 33 0 19 3 37 7 40 11 11 43 8 43 -4z m618 -31
c2 -22 -1 -38 -7 -38 -6 0 -11 11 -11 25 0 14 -4 25 -10 25 -5 0 -10 -11 -10
-25 0 -16 -6 -25 -16 -25 -8 0 -13 4 -10 9 8 13 -4 42 -15 35 -5 -3 -9 -14 -9
-25 0 -10 -4 -19 -10 -19 -11 0 -14 63 -4 73 4 3 27 5 53 4 46 -2 46 -2 49
-39z m109 30 c7 -6 13 -19 13 -29 0 -11 7 -19 18 -19 13 0 14 2 4 9 -22 14
-10 46 17 46 28 0 41 -24 14 -26 -16 -1 -16 -2 0 -6 22 -6 22 -42 1 -50 -9 -3
-25 -1 -35 5 -12 8 -20 8 -24 2 -10 -16 -25 -1 -25 26 0 13 -4 24 -10 24 -5 0
-10 -11 -10 -25 0 -14 -4 -25 -10 -25 -5 0 -10 17 -10 38 0 32 3 38 22 39 12
1 28 -3 35 -9z m-917 -28 c0 -5 -13 -10 -30 -10 -16 0 -30 5 -30 10 0 6 14 10
30 10 17 0 30 -4 30 -10z m641 -1047 c-12 -20 -14 -14 -5 12 4 9 9 14 11 11 3
-2 0 -13 -6 -23z m89 2 c0 -17 -5 -25 -17 -25 -16 0 -16 2 -3 11 12 9 13 12 1
16 -11 5 -11 7 0 14 19 12 19 12 19 -16z m229 -2 c0 -25 -1 -25 -8 -8 -5 11
-7 23 -4 28 8 14 13 7 12 -20z m501 2 c0 -2 -7 -2 -15 1 -8 4 -15 1 -15 -4 0
-6 8 -13 18 -15 13 -4 11 -5 -5 -6 -18 -1 -23 4 -23 24 0 23 2 24 20 15 11 -6
20 -13 20 -15z m200 10 c6 -3 9 -14 9 -23 -1 -15 -2 -15 -6 1 -2 9 -9 17 -14
17 -5 0 -10 -8 -10 -17 -1 -16 -2 -15 -6 1 -4 15 -7 16 -14 5 -7 -11 -9 -9 -9
8 0 17 5 21 20 18 11 -2 25 -7 30 -10z m73 -15 c-7 -28 -13 -25 -13 6 0 14 4
23 9 20 5 -3 7 -15 4 -26z m656 3 c0 -25 -1 -25 -8 -8 -5 11 -7 23 -4 28 8 14
13 7 12 -20z m411 2 c0 -17 -5 -25 -17 -25 -16 0 -16 2 -3 11 12 9 13 12 1 16
-11 5 -11 7 0 14 19 12 19 12 19 -16z m205 -5 c1 -11 -2 -20 -7 -20 -4 0 -8
12 -8 27 0 30 13 24 15 -7z m645 5 c0 -16 -6 -25 -15 -25 -18 0 -20 21 -3 38
17 17 18 16 18 -13z m-2888 -17 c-15 -15 -26 -4 -18 18 5 13 9 15 18 6 9 -9 9
-15 0 -24z m40 25 c-10 -4 -10 -8 -1 -19 9 -11 8 -14 -4 -14 -13 0 -15 13 -8
38 1 1 7 2 14 1 9 0 9 -2 -1 -6z m87 -15 c-1 -21 -2 -21 -7 -3 l-5 20 -8 -20
c-7 -19 -8 -19 -8 3 -1 13 5 22 14 22 9 0 15 -9 14 -22z m31 12 c-12 -8 -13
-12 -2 -19 11 -7 11 -9 -2 -14 -12 -5 -16 0 -16 18 0 17 6 25 18 25 14 0 15
-2 2 -10z m97 4 c-3 -3 -12 -4 -19 -1 -8 3 -5 6 6 6 11 1 17 -2 13 -5z m112
-17 c-14 -15 -22 -18 -30 -10 -16 16 -4 31 25 31 24 0 24 -1 5 -21z m111 19
c0 -2 -7 -7 -16 -10 -8 -3 -12 -2 -9 4 6 10 25 14 25 6z m40 -16 c0 -21 -15
-27 -25 -10 -3 6 -1 10 5 10 6 0 8 5 5 10 -3 6 -1 10 4 10 6 0 11 -9 11 -20z
m67 3 c2 -6 -5 -17 -16 -23 -19 -10 -21 -8 -21 15 0 19 5 26 17 23 9 -2 18 -8
20 -15z m53 7 c-13 -9 -13 -11 0 -20 9 -6 10 -10 3 -10 -15 0 -26 17 -18 30 3
6 12 10 18 10 7 0 6 -4 -3 -10z m172 1 c-5 -3 -12 -13 -15 -21 -4 -12 -6 -11
-6 3 -1 9 -5 17 -11 17 -5 0 -10 -8 -10 -17 -1 -17 -1 -17 -11 0 -5 9 -15 17
-22 17 -7 0 -6 -4 3 -10 8 -5 11 -12 7 -16 -10 -10 -31 12 -23 24 3 5 26 9 51
9 26 0 42 -3 37 -6z m136 -14 c2 -10 -3 -17 -12 -17 -9 0 -16 5 -16 10 0 6 6
10 13 10 8 0 7 4 -3 11 -13 9 -13 10 0 6 8 -2 16 -11 18 -20z m227 13 c3 -6
-1 -7 -9 -4 -18 7 -21 14 -7 14 6 0 13 -4 16 -10z m102 -22 c-3 -7 -5 -2 -5
12 0 14 2 19 5 13 2 -7 2 -19 0 -25z m43 8 c0 -14 -5 -28 -12 -32 -6 -4 -8 -3
-4 4 3 5 1 12 -6 14 -14 5 -4 38 12 38 5 0 10 -11 10 -24z m40 13 c0 -5 -4 -8
-9 -4 -5 3 -12 -3 -14 -12 -4 -14 -5 -13 -6 5 -1 13 5 22 14 22 8 0 15 -5 15
-11z m150 7 c0 -2 -7 -7 -16 -10 -8 -3 -12 -2 -9 4 6 10 25 14 25 6z m37 -28
c-3 -7 -5 -2 -5 12 0 14 2 19 5 13 2 -7 2 -19 0 -25z m30 12 c1 -11 -2 -20 -5
-20 -4 0 -8 9 -9 20 -1 11 2 20 5 20 4 0 8 -9 9 -20z m76 0 c-3 -11 -7 -20 -9
-20 -2 0 -4 9 -4 20 0 11 4 20 9 20 5 0 7 -9 4 -20z m36 -20 c0 -10 -3 -8 -9
5 -12 27 -12 43 0 25 5 -8 9 -22 9 -30z m28 8 c-3 -7 -5 -2 -5 12 0 14 2 19 5
13 2 -7 2 -19 0 -25z m83 12 c0 -12 -7 -20 -17 -20 -15 0 -16 2 -3 10 13 9 13
11 0 20 -13 8 -12 10 3 10 10 0 17 -8 17 -20z m86 9 c3 -5 -2 -6 -10 -3 -9 3
-16 1 -16 -5 0 -6 8 -11 18 -12 11 0 13 -2 4 -6 -8 -3 -22 4 -32 15 -18 19
-18 20 6 20 13 0 27 -4 30 -9z m61 5 c-3 -3 -12 -4 -19 -1 -8 3 -5 6 6 6 11 1
17 -2 13 -5z m158 -3 c2 -4 -1 -13 -6 -21 -8 -13 -11 -12 -23 3 -14 18 -14 18
-19 0 -4 -15 -5 -15 -6 3 -1 17 5 22 24 22 14 0 27 -4 30 -7z m32 -11 c1 -11
-2 -20 -8 -20 -5 0 -9 9 -9 20 0 11 4 20 8 20 4 0 8 -9 9 -20z m29 11 c-4 -5
0 -11 6 -14 7 -2 9 -8 5 -13 -9 -10 -28 16 -21 28 3 4 7 8 10 8 3 0 3 -4 0 -9z
m114 5 c0 -3 -4 -8 -10 -11 -5 -3 -10 -1 -10 4 0 6 5 11 10 11 6 0 10 -2 10
-4z m40 -6 c-13 -8 -13 -10 0 -10 11 0 11 -3 2 -12 -6 -6 -15 -9 -18 -5 -10
10 4 37 18 37 9 0 8 -3 -2 -10z m60 0 c-13 -9 -13 -11 0 -20 13 -8 12 -10 -2
-10 -10 0 -18 6 -18 13 0 17 10 27 24 27 6 0 4 -5 -4 -10z m96 -13 c2 -13 1
-13 -3 -2 -6 19 -17 19 -33 0 -7 -8 -20 -14 -29 -14 -13 1 -13 2 2 6 9 2 17 9
17 15 0 5 -7 7 -16 4 -8 -3 -13 -2 -10 3 3 5 20 8 38 7 23 -1 33 -7 34 -19z
m31 3 c1 -11 -2 -20 -8 -20 -5 0 -9 9 -9 20 0 11 4 20 8 20 4 0 8 -9 9 -20z
m113 -2 c0 -11 -7 -18 -19 -18 -13 0 -19 6 -18 19 2 25 37 24 37 -1z m34 14
c-6 -4 -14 -14 -17 -22 -4 -10 -6 -8 -6 8 -1 15 5 22 17 22 10 0 13 -3 6 -8z
m63 -12 c1 -11 -2 -20 -7 -20 -6 0 -7 17 -1 38 3 8 7 -1 8 -18z m91 -3 c2 -10
-3 -17 -12 -17 -9 0 -16 5 -16 10 0 6 6 10 13 10 8 0 7 4 -3 11 -13 9 -13 10
0 6 8 -2 16 -11 18 -20z m38 -1 c2 -15 2 -15 -3 0 -4 14 -7 14 -14 3 -7 -11
-9 -10 -9 4 0 23 24 17 26 -7z m164 14 c0 -5 -2 -10 -4 -10 -3 0 -8 5 -11 10
-3 6 -1 10 4 10 6 0 11 -4 11 -10z m31 -17 c-12 -20 -14 -14 -5 12 4 9 9 14
11 11 3 -2 0 -13 -6 -23z m-1921 -3 c0 -5 -4 -10 -10 -10 -5 0 -10 5 -10 10 0
6 5 10 10 10 6 0 10 -4 10 -10z m45 -8 c-3 -3 -11 0 -18 7 -9 10 -8 11 6 5 10
-3 15 -9 12 -12z m55 8 c0 -5 -4 -10 -9 -10 -6 0 -13 5 -16 10 -3 6 1 10 9 10
9 0 16 -4 16 -10z m40 0 c0 -5 -4 -10 -10 -10 -5 0 -10 5 -10 10 0 6 5 10 10
10 6 0 10 -4 10 -10z m155 -8 c-3 -3 -11 0 -18 7 -9 10 -8 11 6 5 10 -3 15 -9
12 -12z m530 8 c-3 -5 -11 -10 -16 -10 -6 0 -7 5 -4 10 3 6 11 10 16 10 6 0 7
-4 4 -10z m1025 6 c0 -3 -4 -8 -10 -11 -5 -3 -10 -1 -10 4 0 6 5 11 10 11 6 0
10 -2 10 -4z m-2883 -12 c-3 -3 -12 -4 -19 -1 -8 3 -5 6 6 6 11 1 17 -2 13 -5z
m170 0 c-3 -3 -12 -4 -19 -1 -8 3 -5 6 6 6 11 1 17 -2 13 -5z m1250 0 c-3 -3
-12 -4 -19 -1 -8 3 -5 6 6 6 11 1 17 -2 13 -5z m-13100 -59 l0 -45 -54 0 c-48
0 -53 -2 -53 -22 0 -19 -2 -20 -10 -8 -11 17 -14 103 -3 113 3 4 32 7 63 7
l57 0 0 -45z m147 29 c27 -10 18 -24 -13 -18 -20 4 -30 2 -34 -10 -10 -25 3
-46 27 -45 11 0 15 3 9 6 -20 8 -15 23 8 23 15 0 20 -5 17 -22 -2 -18 -11 -24
-36 -26 -27 -3 -34 1 -42 24 -8 20 -7 32 5 50 16 24 31 29 59 18z m236 -4 c0
-5 -4 -10 -10 -10 -5 0 -10 5 -10 10 0 6 5 10 10 10 6 0 10 -4 10 -10z m288
-8 c3 -9 -3 -11 -22 -6 -16 4 -26 2 -26 -5 0 -6 6 -11 14 -11 22 0 46 -28 39
-46 -7 -18 -64 -15 -71 4 -3 9 3 11 22 6 15 -3 26 -2 26 4 0 5 -11 13 -25 16
-24 6 -34 34 -18 50 11 11 56 2 61 -12z m402 -32 c0 -49 -1 -50 -30 -50 -23 0
-31 5 -36 25 -7 27 10 55 32 55 8 0 14 5 14 10 0 6 5 10 10 10 6 0 10 -22 10
-50z m850 30 c0 -5 -9 -6 -20 -3 -11 3 -20 1 -20 -5 0 -6 9 -14 20 -17 30 -9
26 -45 -4 -45 -14 0 -28 5 -31 10 -4 7 2 9 19 4 33 -8 34 9 1 24 -29 13 -32
27 -8 40 18 10 43 5 43 -8z m-1630 -5 c9 -10 9 -15 1 -15 -15 0 -14 -33 2 -49
10 -10 8 -12 -8 -9 -13 2 -22 14 -26 33 -9 51 6 70 31 40z m50 4 c11 -8 12
-12 3 -16 -7 -2 -13 -12 -13 -22 0 -9 6 -23 13 -30 10 -10 8 -12 -8 -9 -16 2
-21 12 -23 46 -3 43 2 49 28 31z m380 -4 c9 -10 9 -15 1 -15 -15 0 -14 -33 2
-49 10 -10 8 -12 -8 -9 -13 2 -22 14 -26 33 -9 51 6 70 31 40z m185 -33 c1
-53 -21 -57 -28 -4 -5 41 -1 55 16 49 6 -2 11 -22 12 -45z m-666 20 c6 -10 7
-29 4 -41 -8 -31 -57 -26 -61 7 -7 44 38 70 57 34z m221 0 c9 -16 11 -16 20 0
7 10 21 17 35 16 23 -2 25 -6 25 -55 0 -50 -2 -53 -24 -53 -14 0 -28 5 -32 11
-4 7 0 9 14 5 11 -4 23 -2 27 4 3 5 -2 10 -12 10 -11 0 -25 6 -32 13 -11 10
-14 10 -18 0 -9 -24 -23 -13 -23 17 0 17 -4 30 -10 30 -5 0 -10 -13 -10 -30 0
-16 -4 -30 -10 -30 -5 0 -10 17 -10 38 0 33 3 38 25 40 14 1 28 -6 35 -16z
m324 12 c10 -4 16 -18 16 -40 0 -31 -3 -34 -30 -34 -23 0 -30 4 -30 20 0 11 6
20 14 20 8 0 18 5 22 11 4 8 0 9 -15 4 -22 -7 -30 10 -8 18 6 3 13 6 14 6 1 1
8 -2 17 -5z m76 -5 c0 -5 -4 -9 -10 -9 -5 0 -10 -13 -10 -30 0 -16 -4 -30 -10
-30 -10 0 -12 6 -12 40 0 11 0 24 1 28 1 11 41 13 41 1z m118 -1 c20 -20 14
-38 -14 -38 -15 0 -23 -4 -19 -10 4 -6 16 -8 27 -4 14 4 18 2 14 -5 -4 -6 -18
-11 -31 -11 -18 0 -26 7 -31 25 -10 42 26 71 54 43z m-598 -33 c0 -19 -4 -35
-10 -35 -5 0 -10 16 -10 35 0 19 5 35 10 35 6 0 10 -16 10 -35z m11107 -12
c-3 -10 -5 -4 -5 12 0 17 2 24 5 18 2 -7 2 -21 0 -30z m230 0 c-3 -10 -5 -4
-5 12 0 17 2 24 5 18 2 -7 2 -21 0 -30z m560 0 c-3 -10 -5 -4 -5 12 0 17 2 24
5 18 2 -7 2 -21 0 -30z m-810 -5 c-3 -7 -5 -2 -5 12 0 14 2 19 5 13 2 -7 2
-19 0 -25z m289 -5 c-11 -11 -19 6 -11 24 8 17 8 17 12 0 3 -10 2 -21 -1 -24z
m351 5 c-3 -7 -5 -2 -5 12 0 14 2 19 5 13 2 -7 2 -19 0 -25z m30 0 c-3 -7 -5
-2 -5 12 0 14 2 19 5 13 2 -7 2 -19 0 -25z m-620 0 c-3 -8 -6 -5 -6 6 -1 11 2
17 5 13 3 -3 4 -12 1 -19z m27 7 c-4 -8 -8 -15 -10 -15 -2 0 -4 7 -4 15 0 8 4
15 10 15 5 0 7 -7 4 -15z m23 -7 c-3 -8 -6 -5 -6 6 -1 11 2 17 5 13 3 -3 4
-12 1 -19z m110 0 c-3 -8 -6 -5 -6 6 -1 11 2 17 5 13 3 -3 4 -12 1 -19z m100
0 c-3 -8 -6 -5 -6 6 -1 11 2 17 5 13 3 -3 4 -12 1 -19z m43 7 c0 -8 -2 -15 -4
-15 -2 0 -6 7 -10 15 -3 8 -1 15 4 15 6 0 10 -7 10 -15z m27 -7 c-3 -8 -6 -5
-6 6 -1 11 2 17 5 13 3 -3 4 -12 1 -19z m60 0 c-3 -8 -6 -5 -6 6 -1 11 2 17 5
13 3 -3 4 -12 1 -19z m117 2 c-13 -13 -16 -13 -24 0 -7 11 -10 11 -10 2 0 -7
-5 -10 -11 -6 -15 9 3 19 35 19 22 0 24 -2 10 -15z m133 -2 c-3 -8 -6 -5 -6 6
-1 11 2 17 5 13 3 -3 4 -12 1 -19z m100 0 c-3 -8 -6 -5 -6 6 -1 11 2 17 5 13
3 -3 4 -12 1 -19z m51 -3 c-3 -3 -9 2 -12 12 -6 14 -5 15 5 6 7 -7 10 -15 7
-18z m89 10 c0 -8 -4 -12 -9 -9 -5 3 -6 10 -3 15 9 13 12 11 12 -6z m60 -7
c-3 -8 -6 -5 -6 6 -1 11 2 17 5 13 3 -3 4 -12 1 -19z m20 0 c-3 -8 -6 -5 -6 6
-1 11 2 17 5 13 3 -3 4 -12 1 -19z m20 0 c-3 -8 -6 -5 -6 6 -1 11 2 17 5 13 3
-3 4 -12 1 -19z m53 10 c0 7 5 10 10 7 16 -10 12 -23 -7 -21 -9 2 -19 9 -21
17 -3 11 -1 11 7 -1 8 -11 11 -12 11 -2z m2057 -200 c-3 -8 -6 -5 -6 6 -1 11
2 17 5 13 3 -3 4 -12 1 -19z m58 -28 c-3 -5 -14 -10 -23 -9 -14 0 -13 2 3 9
27 11 27 11 20 0z m-14680 -14 c18 -13 18 -14 -3 -25 -26 -14 -43 -14 -79 0
-27 10 -27 11 -9 25 25 18 67 18 91 0z m153 7 c-14 -3 -18 -15 -18 -49 0 -28
-4 -43 -10 -39 -5 3 -10 24 -10 45 0 28 -5 40 -17 43 -10 3 2 5 27 5 25 0 37
-2 28 -5z m400 0 c-13 -3 -18 -15 -18 -43 0 -21 -4 -42 -10 -45 -6 -4 -10 10
-10 34 0 28 -5 43 -17 50 -14 8 -8 10 27 10 25 -1 37 -3 28 -6z m309 -70 c-2
-16 -4 -3 -4 27 0 30 2 43 4 28 2 -16 2 -40 0 -55z m124 70 c6 -46 3 -93 -5
-90 -13 4 -26 65 -19 84 5 14 22 18 24 6z m942 -1 c-6 -4 -13 -23 -16 -42 l-4
-35 -1 37 c-2 25 -7 38 -19 41 -10 3 -2 5 17 6 19 0 30 -3 23 -7z m-1705 -24
c19 -19 14 -28 -13 -28 -34 0 -32 -20 3 -21 26 0 26 -1 5 -11 -39 -19 -72 29
-41 60 7 7 17 12 23 12 6 0 16 -5 23 -12z m87 -28 c0 -32 -2 -35 -30 -35 -37
0 -40 24 -5 42 l25 13 -23 0 c-14 0 -21 4 -17 11 4 5 17 9 28 7 18 -2 22 -10
22 -38z m123 6 c2 -16 -1 -33 -7 -39 -8 -8 -11 -2 -11 21 0 18 -4 32 -10 32
-5 0 -10 -11 -10 -24 0 -14 -4 -28 -10 -31 -6 -4 -10 7 -10 24 0 21 -5 31 -15
31 -10 0 -15 -10 -15 -31 0 -17 -4 -28 -10 -24 -5 3 -10 22 -10 41 l0 34 53
-2 c49 -3 52 -5 55 -32z m190 22 c19 -19 14 -28 -13 -28 -14 0 -25 -5 -25 -11
0 -7 9 -9 21 -6 13 3 19 1 16 -6 -2 -7 -13 -13 -25 -15 -16 -2 -25 4 -31 20
-16 44 25 78 57 46z m120 -32 c2 -25 0 -36 -7 -31 -6 3 -11 17 -11 31 0 13 -4
24 -10 24 -5 0 -10 -11 -10 -25 0 -14 -4 -25 -10 -25 -5 0 -10 11 -10 25 0 14
-4 25 -10 25 -5 0 -10 -11 -10 -24 0 -14 -4 -28 -10 -31 -6 -4 -10 10 -10 35
l0 40 48 -2 c47 -3 47 -3 50 -42z m90 10 c4 -30 -13 -49 -35 -41 -7 2 -13 -2
-13 -10 0 -8 -4 -15 -10 -15 -5 0 -10 23 -10 51 l0 50 33 -3 c27 -3 33 -7 35
-32z m110 -9 c3 -37 2 -38 -25 -35 -36 4 -43 35 -11 47 l23 10 -23 0 c-14 1
-20 5 -17 12 4 5 17 9 28 7 18 -2 23 -11 25 -41z m130 21 c2 -13 -3 -18 -17
-18 -12 0 -21 -5 -21 -11 0 -7 9 -9 21 -6 13 3 19 1 16 -6 -2 -7 -13 -13 -25
-15 -28 -4 -47 30 -32 59 14 24 53 22 58 -3z m72 12 c0 -5 -8 -10 -17 -11 -14
0 -13 -3 5 -11 12 -6 22 -17 22 -24 0 -15 -35 -28 -50 -19 -18 11 -10 23 13
19 l22 -5 -22 12 c-35 18 -29 49 9 49 10 0 18 -4 18 -10z m-1190 -32 c8 0 26
3 40 6 18 4 16 2 -8 -9 -29 -14 -35 -14 -60 0 -15 9 -18 13 -7 9 11 -4 27 -7
35 -6z m33 -19 c29 10 30 9 13 -4 -11 -8 -32 -15 -46 -15 -14 0 -35 7 -46 15
-17 13 -16 14 14 4 23 -8 41 -8 65 0z m23 -227 c4 -22 2 -38 -9 -50 -8 -9 -17
-28 -20 -42 -4 -23 -4 -23 -6 4 0 16 6 37 15 47 10 11 13 25 9 38 -5 17 -15
21 -46 21 -36 0 -39 -2 -39 -26 0 -15 7 -32 16 -38 9 -7 14 -21 12 -33 -3 -20
-3 -20 -23 1 -11 12 -16 18 -10 14 19 -16 28 -7 12 10 -15 17 -24 72 -13 83 2
2 25 4 50 4 44 0 46 -1 52 -33z m11518 6 c14 -23 -3 -52 -33 -56 -19 -3 -21 1
-21 38 0 37 2 41 21 38 12 -2 27 -11 33 -20z m146 -15 c0 -35 -2 -38 -30 -40
-16 -1 -32 3 -36 9 -5 8 -1 9 12 5 18 -7 18 -7 0 7 -10 8 -15 19 -11 25 10 17
33 13 38 -6 3 -14 6 -11 11 10 11 37 16 34 16 -10z m-11510 12 c11 -13 8 -14
-18 -9 -25 5 -31 2 -37 -16 -9 -29 19 -60 37 -42 9 9 9 12 0 12 -7 0 -12 5
-12 10 0 6 9 10 21 10 15 0 20 -5 17 -22 -2 -18 -11 -24 -35 -26 -27 -3 -35 1
-44 22 -23 49 38 101 71 61z m50 5 c0 -5 -2 -10 -4 -10 -3 0 -8 5 -11 10 -3 6
-1 10 4 10 6 0 11 -4 11 -10z m90 -5 c0 -8 9 -15 19 -15 20 0 31 -18 31 -51 0
-29 -18 -23 -22 8 -4 39 -28 42 -28 4 0 -17 -4 -31 -10 -31 -5 0 -10 23 -10
50 0 28 5 50 10 50 6 0 10 -7 10 -15z m190 -15 c21 0 34 -28 24 -54 -4 -10
-17 -16 -35 -16 -28 0 -29 1 -29 53 1 40 3 48 11 35 5 -10 18 -18 29 -18z
m134 24 c26 -10 18 -25 -9 -18 -33 8 -32 -9 1 -25 36 -16 28 -45 -14 -49 -25
-3 -32 1 -32 14 0 14 3 14 15 4 12 -10 19 -10 27 -2 8 8 4 14 -15 23 -52 24
-26 73 27 53z m-369 -52 c0 -51 -21 -57 -27 -8 -5 41 0 58 15 53 6 -2 12 -22
12 -45z m931 35 c4 -4 2 -7 -4 -7 -7 0 -12 -13 -12 -30 0 -16 -4 -30 -10 -30
-5 0 -10 14 -10 30 0 26 -3 30 -27 29 -17 -1 -21 -3 -10 -6 9 -2 17 -9 17 -14
0 -5 -8 -10 -17 -10 -17 -1 -17 -2 0 -6 38 -10 14 -22 -40 -20 -52 2 -58 4
-61 25 -6 43 1 47 86 47 45 -1 84 -4 88 -8z m749 4 c3 -6 -7 -9 -22 -8 -23 2
-29 -3 -31 -22 -2 -13 2 -28 10 -33 10 -8 10 -9 -2 -5 -16 4 -25 39 -16 63 6
16 52 19 61 5z m9653 -8 c2 -7 -3 -13 -12 -13 -9 0 -16 -4 -16 -10 0 -5 7 -6
17 -3 11 4 14 3 9 -5 -18 -30 -55 -1 -42 34 7 18 37 15 44 -3z m152 -8 c0 -36
-10 -55 -30 -55 -11 0 -20 10 -23 28 -6 32 4 47 32 49 16 1 21 -4 21 -22z m58
-7 c2 -16 -1 -28 -7 -28 -6 0 -11 10 -12 23 l0 22 -9 -22 c-13 -32 -20 -29
-20 8 0 26 3 30 23 27 16 -2 23 -11 25 -30z m-10553 -9 c8 -34 -1 -51 -15 -29
-7 11 -12 11 -23 2 -20 -17 -26 -5 -14 29 15 39 43 38 52 -2z m-1035 -14 c0
-19 -4 -35 -10 -35 -5 0 -10 16 -10 35 0 19 5 35 10 35 6 0 10 -16 10 -35z
m172 10 c4 -35 22 -36 26 -2 5 40 22 33 22 -9 0 -34 -1 -35 -32 -32 -29 3 -33
7 -36 36 -4 37 15 44 20 7z m297 3 l8 -23 7 23 c4 12 12 22 17 22 11 0 4 -30
-18 -72 -18 -37 -28 -35 -29 5 0 17 -4 40 -8 50 -5 11 -4 17 3 17 7 0 15 -10
20 -22z m119 -15 c4 -39 -15 -45 -20 -6 -4 39 -28 42 -28 4 0 -17 -4 -31 -10
-31 -5 0 -10 16 -10 36 0 34 1 35 33 32 28 -3 32 -7 35 -35z m77 27 c4 -6 -4
-9 -17 -7 -17 1 -23 -3 -23 -18 0 -16 6 -19 25 -17 19 3 22 1 14 -8 -29 -30
-76 5 -60 46 6 16 52 19 61 4z m1063 -27 c-2 -9 -10 -19 -18 -21 -13 -4 -13
-3 -2 10 10 13 10 17 0 21 -8 3 -6 6 5 6 12 1 17 -5 15 -16z m3212 -148 c0
-20 5 -25 25 -25 14 0 25 -4 25 -10 0 -5 -11 -10 -25 -10 -21 0 -25 -5 -25
-30 0 -16 -4 -30 -10 -30 -5 0 -10 14 -10 30 0 27 -3 30 -30 30 -16 0 -30 5
-30 10 0 6 14 10 30 10 25 0 30 4 30 25 0 14 5 25 10 25 6 0 10 -11 10 -25z
m-5156 -90 c6 -11 15 -23 19 -26 5 -3 7 -21 5 -40 -3 -34 -3 -34 -53 -34 -49
0 -50 1 -53 33 -2 22 2 34 12 38 9 3 16 14 16 23 0 37 35 40 54 6z m186 -10
c16 -19 -3 -45 -31 -45 -13 0 -19 -7 -19 -21 0 -11 -4 -17 -10 -14 -5 3 -10
26 -10 51 0 42 1 44 29 44 16 0 34 -7 41 -15z m290 -36 c-5 -17 -4 -31 3 -38
8 -8 7 -11 -5 -11 -18 0 -28 20 -28 59 0 34 8 43 25 28 8 -8 10 -21 5 -38z
m183 44 c-13 -2 -23 -11 -23 -19 0 -8 10 -15 23 -15 l22 -2 -22 -4 c-14 -3
-23 -12 -23 -23 0 -10 -4 -22 -10 -25 -6 -4 -10 13 -10 44 l0 51 33 -1 c23 -1
26 -3 10 -6z m87 -43 c0 -27 -4 -50 -10 -50 -5 0 -10 23 -10 50 0 28 5 50 10
50 6 0 10 -22 10 -50z m810 15 c0 -14 5 -25 10 -25 6 0 10 11 10 25 0 14 5 25
11 25 6 0 9 -14 7 -32 -2 -28 -7 -33 -28 -33 -21 0 -26 5 -28 33 -2 18 1 32 7
32 6 0 11 -11 11 -25z m100 14 c0 -8 4 -8 13 -1 7 6 38 10 68 9 52 -2 54 -3
52 -29 -2 -37 5 -35 18 2 14 39 33 38 47 -2 l10 -33 1 33 c1 26 5 32 24 32 13
0 28 -5 35 -12 9 -9 12 -9 12 0 0 7 12 12 27 12 26 0 26 -1 7 -15 -19 -14 -19
-14 1 -15 19 -1 19 -1 2 -14 -18 -14 -18 -14 0 -19 12 -3 9 -5 -9 -6 -16 0
-28 4 -28 11 0 9 -3 9 -12 0 -14 -14 -74 -16 -83 -2 -4 6 -13 5 -25 -3 -16 -9
-24 -9 -40 1 -11 7 -20 8 -20 4 0 -5 -18 -9 -40 -10 -33 -2 -42 2 -48 18 l-8
21 -21 -21 c-30 -27 -33 -26 -33 15 0 31 3 35 25 35 14 0 25 -5 25 -11z
m-1410 -9 c0 -5 -4 -10 -10 -10 -5 0 -10 -13 -10 -30 0 -16 -4 -30 -10 -30 -5
0 -10 18 -10 40 0 33 3 40 20 40 11 0 20 -4 20 -10z m30 -30 c0 -22 -4 -40
-10 -40 -5 0 -10 18 -10 40 0 22 5 40 10 40 6 0 10 -18 10 -40z m38 18 l11
-23 7 23 c6 20 24 32 24 15 0 -17 -25 -73 -33 -73 -7 0 -37 60 -37 75 0 14 18
3 28 -17z m110 -21 c3 -37 2 -38 -25 -35 -35 4 -42 31 -11 46 l23 11 -23 0
c-14 1 -20 5 -17 12 4 5 17 9 28 7 18 -2 23 -11 25 -41z m131 24 c12 -22 6
-31 -23 -32 -18 -1 -18 -2 4 -9 22 -6 23 -8 8 -15 -28 -12 -48 2 -48 33 0 16
3 32 7 35 13 13 42 7 52 -12z m161 -21 c0 -16 -4 -32 -10 -35 -6 -4 -10 10
-10 35 0 25 4 39 10 35 6 -3 10 -19 10 -35z m99 31 c20 -13 6 -41 -21 -42 -19
-1 -17 -3 7 -9 26 -6 28 -8 11 -15 -37 -16 -71 30 -46 60 14 17 29 19 49 6z
m76 -1 c3 -6 -4 -10 -17 -10 l-23 0 24 -13 c13 -6 23 -16 23 -22 -1 -17 -28
-29 -48 -20 -18 8 -17 9 4 12 l22 4 -22 20 c-20 16 -21 20 -8 29 19 13 37 13
45 0z m11928 -187 c-79 -2 -207 -2 -285 0 -79 1 -15 3 142 3 157 0 221 -2 143
-3z m345 0 c-38 -2 -98 -2 -135 0 -38 2 -7 3 67 3 74 0 105 -1 68 -3z m490 0
c-75 -2 -201 -2 -280 0 -79 1 -17 3 137 3 154 0 218 -2 143 -3z m552 -8 c19
-22 8 -25 -12 -3 -10 10 -14 18 -9 18 5 0 14 -7 21 -15z m-2193 -82 c-2 -16
-4 -5 -4 22 0 28 2 40 4 28 2 -13 2 -35 0 -50z m918 51 c9 -9 15 -28 13 -43
-2 -20 -9 -27 -31 -29 -50 -6 -75 38 -41 72 20 20 38 20 59 0z m93 -45 c-23
-15 -38 -10 -37 14 1 16 2 18 6 5 6 -25 24 -22 31 5 5 19 7 20 10 3 2 -10 -2
-22 -10 -27z m-13010 -31 l-3 -63 -55 0 -55 0 -3 54 c-4 64 3 71 71 71 l48 0
-3 -62z m13065 46 c-6 -18 -19 -18 -26 -1 -3 7 3 13 14 14 12 1 16 -3 12 -13z
m99 -6 c-5 -19 -7 -20 -10 -5 -2 9 -7 17 -12 17 -5 0 -11 -8 -13 -17 -4 -14
-5 -12 -6 5 -1 17 4 22 23 22 20 0 23 -4 18 -22z m58 10 c0 -4 -8 -8 -17 -9
-15 0 -15 -2 2 -9 16 -7 17 -9 3 -9 -19 -1 -32 14 -24 27 3 5 12 9 21 9 8 0
15 -4 15 -9z m-13078 -55 c9 -26 14 -50 11 -53 -3 -3 -8 1 -10 8 -6 14 -39 16
-48 2 -16 -26 -23 -6 -10 31 27 75 34 76 57 12z m178 32 c0 -8 9 -15 19 -15
20 0 31 -18 31 -51 0 -29 -18 -23 -22 8 -4 39 -28 42 -28 4 0 -17 -4 -31 -10
-31 -5 0 -10 23 -10 50 0 28 5 50 10 50 6 0 10 -7 10 -15z m80 5 c0 -5 -4 -10
-10 -10 -5 0 -10 5 -10 10 0 6 5 10 10 10 6 0 10 -4 10 -10z m1502 -7 c-15 -3
-22 -10 -18 -19 3 -8 1 -24 -4 -36 -7 -19 -9 -16 -9 20 -1 40 1 42 27 41 24
-2 25 -2 4 -6z m11205 1 c-3 -3 -12 -4 -19 -1 -8 3 -5 6 6 6 11 1 17 -2 13 -5z
m-12827 -25 c0 -6 -9 -7 -20 -4 -17 5 -20 2 -20 -20 0 -22 3 -25 20 -20 12 4
20 2 20 -5 0 -6 -12 -10 -27 -8 -22 2 -29 9 -31 31 -4 35 -26 30 -30 -6 -5
-39 -22 -33 -22 7 l0 35 55 0 c30 0 55 -5 55 -10z m120 -24 c0 -19 -4 -35 -10
-35 -5 0 -10 16 -10 35 0 19 5 35 10 35 6 0 10 -16 10 -35z m40 13 l9 -23 7
23 c9 32 28 28 19 -5 -13 -54 -35 -55 -53 -3 -13 35 4 42 18 8z m110 18 c0 -2
3 -11 6 -20 5 -12 0 -16 -20 -16 -14 0 -26 -5 -26 -11 0 -6 9 -9 20 -6 11 3
20 1 20 -5 0 -5 -12 -8 -27 -6 -47 5 -45 68 2 68 14 0 25 -2 25 -4z m11464
-32 c3 -8 2 -12 -4 -9 -6 3 -10 10 -10 16 0 14 7 11 14 -7z m386 -48 c0 -6 -5
-4 -10 4 -7 10 -9 -85 -7 -280 l2 -295 93 -3 c51 -1 92 1 91 5 -1 4 0 37 2 73
l3 65 5 -70 6 -70 47 -3 c29 -2 51 -9 59 -20 11 -14 11 -15 -1 -4 -10 9 -71
12 -220 14 -113 0 -182 4 -155 7 l50 6 3 298 c1 200 -1 296 -8 292 -5 -3 -10
-2 -10 4 0 5 6 11 13 14 13 5 37 -19 37 -37z m-247 13 c5 -17 3 -18 -9 -8 -12
10 -18 8 -30 -7 -14 -18 -15 -18 -5 2 6 12 7 24 4 28 -3 3 3 6 14 6 12 0 23
-8 26 -21z m761 -248 c10 -11 16 -31 14 -48 -3 -26 -6 -28 -43 -28 -38 0 -40
2 -43 33 -2 19 -1 40 2 48 8 20 50 17 70 -5z m82 -23 c4 -7 3 -8 -4 -4 -7 4
-12 1 -12 -9 0 -11 5 -15 15 -12 8 4 16 3 19 -1 2 -4 -6 -9 -20 -10 -17 -1
-24 3 -24 16 0 29 14 40 26 20z m44 3 c0 -4 11 -6 25 -3 21 4 25 1 24 -19 -1
-17 -3 -19 -6 -6 -5 17 -23 24 -23 8 0 -5 -6 -11 -14 -14 -8 -3 -13 1 -12 11
0 9 -5 16 -12 14 -8 -1 -11 2 -7 8 8 12 25 13 25 1z m84 -2 c4 6 12 8 19 4 17
-10 57 -10 57 1 0 5 3 6 6 3 4 -4 1 -14 -6 -22 -11 -13 -15 -13 -21 -3 -6 9
-9 9 -9 1 0 -6 -9 -9 -20 -6 -11 3 -27 0 -35 -7 -13 -11 -15 -8 -15 16 0 20 3
25 9 15 6 -9 11 -10 15 -2z m23 -35 c-3 -3 -12 -4 -19 -1 -8 3 -5 6 6 6 11 1
17 -2 13 -5z m-548 -84 c11 -22 10 -23 -2 -8 -13 16 -15 16 -32 0 -17 -16 -17
-16 0 11 10 15 19 26 20 25 1 -2 8 -14 14 -28z m161 11 c13 -26 13 -41 -1 -18
-8 14 -14 15 -24 7 -11 -9 -12 -7 -8 9 7 26 19 27 33 2z m-12883 -112 l18 -30
5 28 c7 36 24 35 30 -3 5 -24 7 -26 13 -11 5 13 15 17 34 15 23 -2 29 -8 31
-35 4 -44 -28 -63 -58 -33 -15 15 -20 17 -20 5 0 -24 -27 -17 -49 13 l-20 27
-1 -28 c0 -48 -25 -25 -26 24 -2 69 13 79 43 28z m358 16 c0 -5 -10 -11 -22
-13 -28 -4 -30 -22 -3 -22 11 0 20 -4 20 -10 0 -5 -9 -10 -20 -10 -13 0 -20
-7 -20 -20 0 -11 -4 -20 -10 -20 -5 0 -10 25 -10 56 l0 55 33 -3 c17 -2 32 -7
32 -13z m35 -40 c0 -30 -4 -55 -10 -55 -5 0 -10 25 -10 55 0 30 5 55 10 55 6
0 10 -25 10 -55z m40 24 c0 -17 3 -18 20 -7 27 17 55 -1 56 -36 2 -40 -46 -56
-68 -22 -5 8 -8 7 -8 -1 0 -7 -7 -13 -15 -13 -11 0 -15 12 -15 48 0 27 3 52 6
55 11 11 24 -3 24 -24z m233 -31 l15 -43 1 43 c1 23 6 42 11 42 6 0 10 -5 10
-11 0 -8 4 -8 14 0 10 9 16 7 27 -5 10 -12 10 -17 0 -23 -18 -11 -18 -16 -1
-36 13 -16 12 -17 -5 -14 -10 2 -22 15 -26 29 l-7 25 -1 -27 c-1 -23 -6 -28
-26 -28 -14 0 -25 5 -25 10 0 14 -28 12 -33 -2 -2 -7 -8 -10 -12 -6 -12 12 14
88 30 88 7 0 20 -19 28 -42z m158 20 l18 -23 1 23 c0 12 5 22 10 22 6 0 10
-20 10 -45 0 -50 -11 -57 -34 -23 l-16 22 0 -23 c0 -32 -24 -21 -28 13 -4 29
3 56 14 56 3 0 14 -10 25 -22z m-661 1 c0 -8 5 -8 15 1 11 10 18 10 29 1 11
-9 15 -9 19 1 9 26 18 -1 12 -36 -8 -40 -21 -45 -41 -18 -13 16 -13 16 -14 0
0 -34 -28 -18 -38 22 -8 32 -7 40 4 40 8 0 14 -5 14 -11z m1964 -8 c3 -5 -1
-14 -9 -21 -12 -10 -18 -10 -30 0 -8 7 -15 16 -15 21 0 12 47 12 54 0z m10599
-56 c-3 -9 -8 -14 -10 -11 -3 3 -2 9 2 15 9 16 15 13 8 -4z m134 -52 c-3 -10
-5 -4 -5 12 0 17 2 24 5 18 2 -7 2 -21 0 -30z m556 20 c-83 -2 -223 -2 -310 0
-87 1 -18 3 152 3 171 0 242 -2 158 -3z m-1040 -18 c-3 -9 -8 -14 -10 -11 -3
3 -2 9 2 15 9 16 15 13 8 -4z m560 0 c-3 -9 -8 -14 -10 -11 -3 3 -2 9 2 15 9
16 15 13 8 -4z m666 -19 c-3 -3 -11 5 -18 17 -13 21 -12 21 5 5 10 -10 16 -20
13 -22z m-9169 -166 c0 -5 -5 -10 -11 -10 -5 0 -7 5 -4 10 3 6 8 10 11 10 2 0
4 -4 4 -10z m7795 0 c3 -5 1 -10 -4 -10 -6 0 -11 5 -11 10 0 6 2 10 4 10 3 0
8 -4 11 -10z m-8800 -11 c11 -17 -3 -23 -20 -9 -22 18 -50 -9 -40 -39 7 -23
34 -28 53 -9 7 7 12 8 12 2 0 -5 -5 -15 -12 -22 -34 -34 -87 13 -69 62 8 20
17 26 40 26 16 0 33 -5 36 -11z m260 -49 c1 -24 -3 -39 -9 -37 -13 4 -26 65
-19 84 10 25 27 -4 28 -47z m320 10 c0 -43 -1 -45 -32 -48 l-33 -3 0 51 0 51
33 -3 c31 -3 32 -5 32 -48z m45 6 c0 -25 -4 -48 -10 -51 -6 -4 -10 13 -10 44
0 28 5 51 10 51 6 0 10 -20 10 -44z m190 23 c0 -18 2 -19 15 -9 19 16 32 6 17
-13 -7 -8 -7 -18 -2 -27 17 -26 11 -34 -10 -15 -18 16 -20 16 -20 2 0 -10 -4
-17 -10 -17 -5 0 -10 23 -10 50 0 28 5 50 10 50 6 0 10 -10 10 -21z m138 14
c-32 -5 -38 -33 -8 -33 11 0 20 -4 20 -10 0 -5 -9 -10 -20 -10 -14 0 -20 -7
-20 -22 0 -30 -7 -19 -13 21 -8 48 0 61 37 60 30 -2 30 -2 4 -6z m92 -37 c0
-25 -4 -48 -10 -51 -6 -4 -10 13 -10 44 0 28 5 51 10 51 6 0 10 -20 10 -44z
m2876 18 c-3 -8 1 -14 9 -14 7 0 17 10 21 22 l7 23 8 -23 c5 -12 15 -22 24
-22 8 0 15 -4 15 -10 0 -5 -6 -10 -14 -10 -8 0 -17 -9 -21 -19 -4 -13 -12 -17
-25 -14 -12 3 -20 0 -20 -6 0 -8 -4 -8 -14 1 -10 9 -11 17 -4 26 7 8 7 17 -2
27 -14 17 -5 50 11 40 6 -4 8 -13 5 -21z m229 15 c10 -16 -4 -24 -17 -11 -17
17 -26 15 -38 -7 -13 -26 -3 -51 21 -51 21 0 26 16 7 23 -7 3 -1 6 14 6 24 1
26 -2 19 -21 -12 -34 -55 -36 -77 -3 -24 37 -6 75 35 75 16 0 33 -5 36 -11z
m430 -49 c1 -24 -3 -39 -9 -37 -13 4 -26 65 -19 84 10 25 27 -4 28 -47z m415
39 c26 -47 -26 -101 -65 -69 -15 12 -21 71 -8 83 15 16 63 6 73 -14z m135 -39
c1 -52 -21 -54 -27 -2 -6 46 0 68 15 53 6 -6 12 -29 12 -51z m45 3 c0 -29 -18
-58 -21 -34 -2 15 -2 57 0 79 2 30 21 -9 21 -45z m2758 50 c-13 -3 -18 -15
-18 -43 0 -21 -4 -42 -10 -45 -6 -4 -10 11 -10 39 0 34 -4 46 -17 49 -10 3 2
5 27 5 25 0 37 -2 28 -5z m192 -2 c0 -5 9 -11 20 -14 16 -4 20 -14 20 -43 0
-20 -3 -34 -7 -30 -8 8 -9 13 -12 41 -2 25 -21 17 -21 -9 0 -14 -4 -28 -10
-31 -6 -4 -10 13 -10 44 0 28 5 51 10 51 6 0 10 -4 10 -9z m350 -41 c0 -27 -4
-50 -10 -50 -5 0 -10 23 -10 50 0 28 5 50 10 50 6 0 10 -22 10 -50z m130 29
c17 -30 4 -68 -25 -75 -48 -12 -59 10 -46 89 0 4 14 7 31 7 20 0 33 -7 40 -21z
m490 0 c25 -45 -18 -94 -65 -75 -15 5 -22 76 -8 89 15 16 63 6 73 -14z m-9030
-9 c0 -5 -4 -10 -10 -10 -5 0 -10 -11 -10 -24 0 -14 -4 -28 -10 -31 -6 -4 -10
10 -10 34 0 34 3 41 20 41 11 0 20 -4 20 -10z m68 -17 c3 -19 -2 -23 -25 -24
l-28 -1 30 -8 c26 -6 28 -8 11 -15 -37 -16 -71 30 -45 61 18 22 53 13 57 -13z
m80 -15 c3 -36 2 -38 -26 -38 -48 0 -49 33 -2 54 8 3 5 4 -7 2 -13 -2 -23 -1
-23 3 0 14 14 22 35 19 15 -2 21 -12 23 -40z m130 15 c3 -19 -2 -23 -25 -24
l-28 -1 30 -8 c26 -6 28 -8 11 -15 -37 -16 -71 30 -45 61 18 22 53 13 57 -13z
m112 13 c19 -24 8 -61 -19 -64 -32 -5 -42 9 -35 46 7 35 32 43 54 18z m238
-29 c3 -37 2 -38 -25 -35 -36 4 -43 35 -11 47 l23 10 -23 0 c-14 1 -20 5 -17
12 4 5 17 9 28 7 18 -2 23 -11 25 -41z m82 29 c13 -17 10 -57 -5 -57 -5 0 -11
12 -13 26 -5 35 -22 31 -22 -5 0 -16 -4 -30 -10 -30 -5 0 -10 18 -10 40 0 35
3 40 24 40 13 0 29 -7 36 -14z m230 -26 c0 -22 -4 -40 -10 -40 -5 0 -10 18
-10 40 0 22 5 40 10 40 6 0 10 -18 10 -40z m108 28 c5 -7 9 -24 7 -38 -1 -20
-7 -25 -31 -25 -23 0 -30 5 -32 23 -6 41 33 68 56 40z m3120 0 c5 -7 9 -24 7
-38 -1 -20 -7 -25 -31 -25 -25 0 -30 4 -32 29 -5 40 33 62 56 34z m86 -4 c9
-25 7 -64 -4 -64 -5 0 -10 14 -10 30 0 20 -5 30 -15 30 -10 0 -15 -10 -15 -30
0 -16 -4 -30 -10 -30 -5 0 -10 18 -10 40 0 37 2 40 29 40 17 0 31 -6 35 -16z
m74 4 c20 -20 13 -38 -15 -39 l-28 -2 28 -4 c33 -5 26 -23 -8 -23 -18 0 -26 7
-31 25 -10 42 26 71 54 43z m72 2 c0 -5 -7 -10 -15 -10 -10 0 -15 -10 -15 -31
0 -17 -4 -28 -10 -24 -5 3 -10 22 -10 41 0 30 3 34 25 34 14 0 25 -4 25 -10z
m68 -33 c3 -38 3 -38 -30 -35 -40 4 -44 26 -8 46 23 13 23 13 3 9 -13 -3 -23
-2 -23 2 0 14 14 22 35 19 15 -2 21 -12 23 -41z m122 28 c15 -18 5 -35 -23
-36 -17 -1 -15 -3 8 -9 26 -6 28 -8 11 -15 -37 -16 -71 30 -46 60 16 19 34 19
50 0z m118 -28 c3 -37 2 -38 -25 -35 -24 3 -28 8 -28 33 -1 41 3 47 28 43 18
-2 23 -11 25 -41z m84 19 c6 -14 7 -33 3 -43 -7 -15 -9 -13 -14 11 -8 38 -31
47 -31 12 0 -13 -4 -28 -10 -31 -6 -4 -10 10 -10 34 0 37 2 41 25 41 17 0 29
-8 37 -24z m178 -6 c0 -20 5 -30 15 -30 10 0 15 10 15 30 0 17 5 30 11 30 6 0
9 -16 7 -37 -2 -31 -7 -39 -27 -41 -13 -2 -28 2 -32 10 -12 18 -11 68 1 68 6
0 10 -13 10 -30z m170 -10 c0 -22 -4 -40 -10 -40 -5 0 -10 18 -10 40 0 22 5
40 10 40 6 0 10 -18 10 -40z m78 -2 c2 -22 -1 -38 -7 -38 -6 0 -11 14 -11 31
0 39 -23 34 -30 -7 -7 -40 -19 -17 -13 24 5 29 9 33 32 30 22 -3 26 -8 29 -40z
m80 15 c3 -19 -2 -23 -25 -24 l-28 -1 30 -8 c26 -6 28 -8 11 -15 -37 -16 -71
30 -45 61 18 22 53 13 57 -13z m2641 10 c9 -17 11 -17 24 1 7 10 22 17 32 15
27 -6 29 -26 3 -25 -14 1 -23 -5 -23 -14 0 -9 9 -15 23 -14 28 1 23 -20 -6
-24 -13 -2 -25 5 -33 20 l-12 22 -8 -22 c-11 -29 -47 -29 -58 1 -11 28 4 57
29 57 10 0 23 -8 29 -17z m238 -28 c1 -34 0 -36 -5 -11 -10 41 -32 46 -32 7 0
-17 -4 -31 -10 -31 -5 0 -10 18 -10 41 0 38 1 40 28 37 24 -3 27 -7 29 -43z
m43 5 c0 -22 -4 -40 -10 -40 -5 0 -10 18 -10 40 0 22 5 40 10 40 6 0 10 -18
10 -40z m78 22 c3 -9 -3 -11 -22 -6 -22 5 -26 3 -26 -16 0 -19 4 -21 26 -16
19 5 25 3 22 -6 -11 -32 -68 -14 -68 21 0 36 57 56 68 23z m72 4 c6 -8 10 -25
8 -38 -2 -18 -9 -23 -33 -23 -37 0 -45 27 -13 44 13 6 15 9 6 7 -11 -4 -18 0
-18 9 0 19 34 19 50 1z m249 0 c6 -7 10 -24 8 -37 -3 -19 -10 -24 -33 -24 -23
0 -30 5 -32 23 -6 42 33 68 57 38z m76 4 c3 -6 -4 -10 -17 -11 l-23 0 23 -9
c25 -11 29 -38 7 -46 -8 -4 -23 -3 -32 1 -16 7 -14 9 7 15 l25 6 -22 8 c-22 7
-30 26 -16 39 10 10 41 8 48 -3z m45 -24 c0 -19 -4 -38 -10 -41 -6 -4 -10 10
-10 34 0 23 5 41 10 41 6 0 10 -15 10 -34z m80 -10 c0 -53 -19 -74 -53 -58
-21 10 -21 11 8 12 l30 2 -27 10 c-21 7 -28 16 -28 37 0 35 6 41 42 41 26 0
28 -2 28 -44z m78 2 c2 -22 -1 -38 -7 -38 -6 0 -11 14 -11 31 0 38 -24 35 -28
-4 -5 -39 -22 -23 -22 19 0 34 1 35 33 32 29 -3 32 -6 35 -40z m212 27 c7 -9
10 -25 6 -41 -5 -20 -12 -25 -34 -22 -19 2 -28 9 -30 26 -6 43 33 68 58 37z
m88 -3 c3 -9 -3 -11 -22 -6 -22 5 -26 3 -26 -16 0 -19 4 -21 26 -16 19 5 25 3
22 -6 -11 -32 -68 -14 -68 21 0 36 57 56 68 23z m-5058 -462 c0 -13 -6 -20
-17 -19 -11 0 -13 3 -5 6 6 2 12 9 12 14 0 6 -5 7 -12 3 -7 -4 -8 -3 -4 4 11
19 26 14 26 -8z m43 0 c-3 -11 -13 -20 -22 -19 -10 0 -11 2 -3 6 6 2 12 11 12
19 0 8 4 14 9 14 5 0 7 -9 4 -20z m38 5 c7 19 8 19 8 -2 1 -17 -5 -23 -19 -23
-22 0 -23 1 -13 27 7 17 8 17 12 -2 l4 -20 8 20z m46 -5 c-1 -11 -7 -20 -14
-20 -17 0 -17 27 0 33 6 3 13 6 14 6 1 1 1 -8 0 -19z m403 0 c0 -11 -7 -20
-15 -20 -27 0 -18 30 13 39 1 1 2 -8 2 -19z m-383 -12 c-3 -8 -6 -5 -6 6 -1
11 2 17 5 13 3 -3 4 -12 1 -19z m20 0 c-3 -8 -6 -5 -6 6 -1 11 2 17 5 13 3 -3
4 -12 1 -19z m290 0 c-3 -8 -6 -5 -6 6 -1 11 2 17 5 13 3 -3 4 -12 1 -19z
m113 9 c0 -8 -7 -14 -15 -14 -25 0 -17 17 13 26 1 1 2 -5 2 -12z m17 -9 c-3
-8 -6 -5 -6 6 -1 11 2 17 5 13 3 -3 4 -12 1 -19z m-3557 -43 c0 -8 -4 -15 -8
-15 -5 0 -9 7 -9 15 0 8 4 15 9 15 4 0 8 -7 8 -15z m40 5 c0 -5 -4 -10 -10
-10 -5 0 -10 5 -10 10 0 6 5 10 10 10 6 0 10 -4 10 -10z m40 -1 c0 -5 5 -7 12
-3 7 4 8 3 4 -5 -6 -8 -12 -9 -20 -2 -7 6 -16 8 -19 4 -4 -3 -7 -1 -7 5 0 7 7
12 15 12 8 0 15 -5 15 -11z m72 -4 c5 -6 8 -5 8 3 0 6 8 12 18 12 15 -1 14 -2
-3 -12 -23 -14 -56 -18 -49 -7 2 4 -2 10 -8 13 -7 3 -4 4 7 3 11 -1 23 -6 27
-12z m88 5 c-20 -13 -40 -13 -40 0 0 6 12 10 28 10 21 0 24 -2 12 -10z m-5030
-90 c0 -27 -4 -50 -10 -50 -5 0 -10 16 -10 36 0 21 -4 33 -10 29 -5 -3 -10 0
-10 9 0 13 13 23 33 25 4 1 7 -21 7 -49z m396 30 c0 -11 -3 -20 -7 -20 -4 0
-6 -11 -4 -25 1 -14 -1 -28 -5 -30 -11 -7 -17 62 -7 80 11 21 23 19 23 -5z
m109 10 c3 -5 -3 -10 -14 -10 -12 0 -21 -4 -21 -10 0 -5 9 -10 21 -10 16 0 20
-5 17 -27 -2 -22 -8 -28 -27 -28 -13 0 -26 6 -29 14 -3 9 1 11 17 6 12 -4 21
-2 21 4 0 6 -9 11 -20 11 -14 0 -20 7 -20 23 0 13 3 27 7 30 10 10 41 8 48 -3z
m91 -10 c0 -11 -4 -20 -8 -20 -4 0 -9 -15 -9 -32 l-2 -33 -6 35 c-4 19 -5 43
-3 53 6 24 28 22 28 -3z m-365 3 c5 -50 2 -82 -6 -80 -11 4 -23 56 -17 75 4
13 22 17 23 5z m416 -60 c-2 -16 -4 -5 -4 22 0 28 2 40 4 28 2 -13 2 -35 0
-50z m473 22 c0 -41 -2 -45 -24 -45 -13 0 -29 7 -36 15 -14 17 -65 21 -55 4 4
-6 13 -8 21 -5 8 3 14 1 14 -4 0 -6 -11 -10 -24 -10 -27 0 -41 26 -30 54 7 19
50 22 58 4 5 -10 7 -10 12 0 3 6 14 12 25 12 10 0 19 5 19 10 0 6 5 10 10 10
6 0 10 -20 10 -45z m-1005 -10 c0 -35 -31 -47 -51 -20 -18 25 0 57 29 53 17
-2 22 -10 22 -33z m37 10 c4 -35 22 -35 29 1 6 27 7 27 8 -9 1 -36 -1 -38 -26
-35 -23 2 -29 8 -31 36 -4 37 15 44 20 7z m193 -10 c0 -25 -4 -30 -25 -30 -16
0 -26 6 -28 18 -6 30 6 49 30 45 18 -2 23 -9 23 -33z m272 -17 c-2 -13 -4 -5
-4 17 -1 22 1 32 4 23 2 -10 2 -28 0 -40z m111 30 c3 -14 -3 -18 -23 -18 -16
0 -24 -4 -20 -10 4 -6 16 -8 28 -4 17 5 19 3 11 -6 -27 -28 -65 7 -50 46 8 21
50 14 54 -8z m62 12 c0 -5 -8 -7 -17 -4 -12 4 -10 0 6 -14 13 -11 21 -24 17
-31 -9 -14 -43 -14 -52 0 -4 8 0 9 15 4 12 -4 21 -2 21 4 0 6 -6 11 -14 11
-18 0 -29 16 -21 30 8 13 45 13 45 0z m72 -15 c4 -35 22 -35 29 1 6 28 7 27 8
-8 1 -34 -2 -38 -23 -38 -24 0 -36 16 -36 51 0 28 18 23 22 -6z m108 15 c0 -5
-7 -7 -15 -4 -8 4 -15 1 -15 -5 0 -6 7 -11 16 -11 24 0 12 -35 -14 -38 -12 -2
-22 1 -22 7 0 6 7 8 15 5 8 -4 15 -2 15 4 0 5 -7 12 -15 16 -25 9 -18 36 10
36 14 0 25 -4 25 -10z m6823 -3 c4 3 7 1 7 -5 0 -7 -9 -12 -20 -12 -12 0 -20
7 -20 16 0 13 3 14 13 5 8 -6 17 -8 20 -4z m37 3 c0 -5 -5 -10 -11 -10 -5 0
-7 5 -4 10 3 6 8 10 11 10 2 0 4 -4 4 -10z m72 -5 c5 -6 8 -5 8 3 0 17 17 15
23 -2 5 -12 -4 -15 -44 -14 -44 0 -58 6 -44 20 9 8 50 3 57 -7z m233 6 c3 -5
1 -12 -5 -16 -5 -3 -10 1 -10 9 0 18 6 21 15 7z m63 -12 c-2 -6 -8 -10 -13
-10 -5 0 -11 4 -13 10 -2 6 4 11 13 11 9 0 15 -5 13 -11z m52 7 c0 -3 -4 -8
-10 -11 -5 -3 -10 -1 -10 4 0 6 5 11 10 11 6 0 10 -2 10 -4z m74 -3 c-5 -5
-12 -12 -15 -16 -3 -5 -9 -2 -12 7 -5 12 0 16 15 16 12 0 17 -3 12 -7z m30 -8
c-4 -8 -8 -15 -10 -15 -2 0 -4 7 -4 15 0 8 4 15 10 15 5 0 7 -7 4 -15z m4120
-6 c-4 -8 0 -9 15 -4 15 5 21 2 21 -9 0 -19 -5 -20 -31 -5 -17 8 -19 29 -3 29
3 0 2 -5 -2 -11z m86 2 c0 -6 -4 -13 -10 -16 -5 -3 -10 1 -10 9 0 9 5 16 10
16 6 0 10 -4 10 -9z m40 -6 c0 -9 -6 -12 -15 -9 -8 4 -15 10 -15 15 0 5 7 9
15 9 8 0 15 -7 15 -15z m60 -6 c0 -5 -4 -9 -10 -9 -5 0 -10 6 -10 13 0 8 -3 7
-10 -3 -5 -8 -12 -11 -17 -7 -4 5 -1 12 6 17 16 9 41 3 41 -11z m43 5 c-4 -11
-8 -12 -13 -4 -6 9 -9 9 -13 -1 -4 -10 -6 -9 -6 4 -1 11 6 17 19 17 14 0 18
-5 13 -16z m67 1 c0 -8 -2 -15 -4 -15 -2 0 -6 7 -10 15 -3 8 -1 15 4 15 6 0
10 -7 10 -15z m59 -2 c0 -11 -3 -13 -6 -5 -8 19 -26 14 -18 -5 5 -14 3 -15 -6
-6 -6 6 -8 16 -5 22 11 17 36 13 35 -6z m41 3 c0 -8 -6 -16 -14 -19 -10 -4
-12 0 -9 14 6 22 23 26 23 5z m-11715 -26 c3 -5 1 -10 -4 -10 -6 0 -11 5 -11
10 0 6 2 10 4 10 3 0 8 -4 11 -10z m5041 -61 c4 -8 9 -7 15 2 5 8 9 9 9 3 0
-19 -13 -24 -27 -12 -10 8 -17 9 -21 1 -5 -7 -11 -6 -20 3 -11 12 -9 14 12 14
14 0 28 -5 32 -11z m65 -1 c0 -10 2 -10 6 0 2 6 18 12 34 12 29 0 39 -13 19
-25 -5 -3 -10 0 -10 7 0 9 -3 9 -10 -2 -9 -13 -10 -13 -10 0 0 13 -2 13 -9 1
-8 -12 -12 -12 -24 -2 -12 9 -16 9 -20 -1 -4 -8 -6 -7 -6 5 -1 19 29 24 30 5z
m199 1 c0 -6 -6 -9 -14 -6 -7 3 -19 0 -25 -6 -9 -9 -14 -8 -21 3 -8 13 -11 13
-19 1 -5 -7 -14 -10 -20 -7 -25 16 -8 26 44 26 34 0 55 -4 55 -11z m8958 -12
c2 -10 -3 -27 -12 -36 -9 -10 -14 -25 -10 -35 4 -10 1 -16 -8 -16 -17 0 -23
56 -7 65 17 11 9 23 -11 18 -20 -5 -27 7 -13 21 14 14 58 1 61 -17z m-7497
-12 c5 4 6 0 4 -7 -3 -8 -14 -14 -24 -14 -16 0 -18 3 -9 21 7 13 13 15 16 7 2
-6 8 -10 13 -7z m-156 -15 c-18 -20 -35 -18 -35 3 0 7 12 14 27 15 25 2 26 2
8 -18z m101 5 c-6 -6 -18 -12 -26 -12 -8 0 -21 -2 -29 -4 -8 -2 -16 3 -18 12
-3 14 4 17 40 16 34 0 42 -3 33 -12z m267 -5 c3 -11 1 -18 -4 -14 -5 3 -9 12
-9 20 0 20 7 17 13 -6z m67 -5 c0 -9 -9 -15 -25 -15 -22 0 -24 2 -13 15 17 19
38 19 38 0z m115 -5 c-3 -5 -14 -8 -25 -7 -10 1 -16 5 -14 9 3 5 10 6 15 3 5
-4 9 -1 9 5 0 6 5 8 10 5 6 -4 8 -10 5 -15z m-7179 -40 c0 -11 -4 -20 -8 -20
-4 0 -9 -15 -9 -32 l-2 -33 -6 35 c-7 34 2 70 17 70 4 0 8 -9 8 -20z m364 10
c0 -5 -4 -10 -10 -10 -5 0 -10 5 -10 10 0 6 5 10 10 10 6 0 10 -4 10 -10z
m140 0 c0 -5 -4 -10 -10 -10 -5 0 -10 5 -10 10 0 6 5 10 10 10 6 0 10 -4 10
-10z m190 -41 c0 -49 -1 -50 -27 -47 -24 3 -28 8 -28 33 0 23 5 31 23 33 12 2
22 10 22 18 0 8 2 14 5 14 3 0 5 -23 5 -51z m-1848 4 c2 -26 8 -38 18 -38 10
0 16 12 18 38 4 46 22 49 22 4 0 -21 -8 -41 -20 -52 -19 -17 -21 -17 -40 0
-12 11 -20 31 -20 52 0 45 18 42 22 -4z m408 -7 c0 -37 -4 -45 -22 -49 -26 -7
-38 7 -38 46 0 20 5 27 20 27 11 0 20 5 20 10 0 6 5 10 10 10 6 0 10 -20 10
-44z m520 -1 c0 -25 -4 -45 -10 -45 -5 0 -10 20 -10 45 0 25 5 45 10 45 6 0
10 -20 10 -45z m560 0 c0 -25 -4 -45 -10 -45 -5 0 -10 20 -10 45 0 25 5 45 10
45 6 0 10 -20 10 -45z m209 17 c-13 -5 -11 -36 3 -50 9 -9 8 -12 -4 -12 -11 0
-17 12 -21 38 -5 45 0 56 18 39 7 -6 9 -13 4 -15z m-1562 -8 c9 -23 -15 -67
-32 -60 -8 3 -15 1 -15 -4 0 -6 -4 -10 -10 -10 -5 0 -10 20 -10 45 0 43 1 45
30 45 19 0 33 -6 37 -16z m73 -28 c0 -45 -22 -68 -44 -46 -7 7 -2 10 15 11
l24 1 -25 7 c-43 12 -40 71 5 71 23 0 25 -4 25 -44z m48 32 c-9 -7 -19 -24
-21 -38 -3 -18 -5 -14 -6 13 -1 32 2 37 21 37 19 0 20 -1 6 -12z m72 -22 c0
-40 -25 -55 -49 -31 -15 15 -14 18 9 36 16 14 19 19 8 15 -10 -3 -18 -1 -18 4
0 6 11 10 25 10 22 0 25 -4 25 -34z m150 30 c0 -2 3 -11 6 -20 5 -12 0 -16
-21 -16 -15 0 -24 -4 -20 -10 4 -6 16 -8 28 -4 21 6 21 5 4 -12 -17 -18 -18
-18 -38 3 -28 27 -18 63 17 63 13 0 24 -2 24 -4z m76 -18 l6 -21 14 24 c18 32
18 7 0 -36 -14 -33 -42 -52 -30 -20 3 8 1 28 -4 45 -6 16 -7 30 -2 30 5 0 12
-10 16 -22z m109 2 c8 -25 -10 -50 -36 -50 -20 0 -36 40 -24 59 11 19 53 12
60 -9z m41 -30 c8 0 14 10 14 25 0 14 5 25 10 25 6 0 10 -16 10 -36 0 -33 -2
-35 -27 -32 -24 3 -28 8 -29 38 -1 26 -1 28 3 8 2 -16 11 -28 19 -28z m77 43
c-7 -2 -13 -18 -13 -34 0 -16 -4 -29 -10 -29 -5 0 -10 16 -10 35 0 30 3 35 23
34 12 0 16 -3 10 -6z m112 -28 c0 -22 -5 -31 -20 -34 -11 -2 -23 -8 -27 -15
-4 -6 -8 11 -8 37 0 47 1 48 28 45 23 -2 27 -8 27 -33z m103 -3 c3 -31 2 -33
-25 -30 -29 3 -47 38 -19 38 8 0 18 5 22 12 5 8 2 9 -9 5 -10 -3 -17 -2 -17 4
0 6 10 9 23 7 17 -2 23 -11 25 -36z m70 1 c-1 -37 -1 -37 -5 -5 -6 43 -33 44
-33 0 0 -38 -13 -29 -16 12 -2 27 1 30 27 30 27 0 29 -2 27 -37z m157 26 c12
-19 -4 -59 -25 -59 -23 0 -43 32 -34 54 7 18 49 22 59 5z m48 4 c-7 -2 -13
-18 -13 -34 0 -16 -4 -29 -10 -29 -5 0 -10 16 -10 35 0 30 3 35 23 34 12 0 16
-3 10 -6z m82 -43 c8 0 16 12 18 28 3 22 4 20 6 -10 1 -34 -2 -38 -24 -38 -22
0 -25 4 -24 38 2 30 3 32 6 10 2 -16 10 -28 18 -28z m103 13 c2 -19 -1 -33 -7
-33 -6 0 -11 14 -11 31 0 39 -22 34 -31 -7 -6 -27 -7 -26 -8 9 -1 36 1 38 27
35 22 -2 28 -8 30 -35z m62 1 c0 -21 -4 -33 -10 -29 -5 3 -10 19 -10 36 0 16
5 29 10 29 6 0 10 -16 10 -36z m108 -1 c2 -19 -1 -33 -7 -33 -6 0 -11 14 -11
30 0 17 -4 30 -10 30 -5 0 -10 -13 -10 -30 0 -16 -4 -30 -10 -30 -5 0 -10 14
-10 30 0 17 -4 30 -10 30 -5 0 -10 -13 -10 -30 0 -16 -4 -30 -10 -30 -5 0 -10
16 -10 36 l0 35 48 -3 c45 -3 47 -4 50 -35z m32 2 c0 -19 -4 -35 -10 -35 -5 0
-10 16 -10 35 0 19 5 35 10 35 6 0 10 -16 10 -35z m118 13 c3 -14 -3 -18 -23
-18 -16 0 -24 -4 -20 -10 4 -6 16 -8 28 -4 17 5 19 3 11 -6 -27 -28 -65 7 -50
46 8 21 50 14 54 -8z m182 -13 c0 -30 -3 -35 -24 -35 -36 0 -43 20 -15 42 16
14 18 18 7 14 -10 -3 -18 -1 -18 4 0 6 11 10 25 10 22 0 25 -4 25 -35z m70 26
c0 -5 -8 -8 -17 -7 -12 1 -18 -6 -18 -19 0 -13 6 -20 18 -19 9 1 17 -2 17 -7
0 -16 -39 -10 -48 7 -15 27 -3 54 24 54 13 0 24 -4 24 -9z m70 0 c0 -5 -8 -8
-17 -7 -12 1 -18 -6 -18 -19 0 -13 6 -20 18 -19 9 1 17 -3 17 -8 0 -5 -10 -8
-22 -6 -39 5 -37 68 2 68 11 0 20 -4 20 -9z m78 -13 c3 -14 -3 -18 -23 -18
-16 0 -24 -4 -20 -10 4 -6 16 -8 28 -4 17 5 19 3 11 -6 -27 -28 -65 7 -50 46
8 21 50 14 54 -8z m62 12 c0 -5 -8 -7 -17 -4 -12 4 -10 0 6 -14 13 -11 21 -24
17 -31 -9 -14 -43 -14 -52 0 -4 8 0 9 15 4 12 -3 21 -2 21 4 0 5 -9 13 -20 16
-20 6 -25 16 -13 28 10 11 43 8 43 -3z m70 1 c0 -5 -10 -7 -22 -3 -14 3 -19 2
-14 -6 4 -7 14 -12 22 -12 24 0 12 -35 -14 -38 -12 -2 -22 2 -22 8 0 7 7 10
15 7 8 -4 17 -2 20 2 2 5 -4 11 -15 14 -30 8 -25 37 5 37 14 0 25 -4 25 -9z
m4110 -111 c0 -87 -2 -100 -17 -100 -9 0 -27 10 -40 22 -13 12 -23 16 -23 9 0
-8 -14 -11 -42 -9 -43 3 -43 3 -46 46 -2 29 1 42 10 42 7 1 4 6 -7 13 -22 14
-35 54 -13 42 10 -6 11 -5 1 6 -24 25 -13 29 82 29 l95 0 0 -100z m7938 88
c-6 -16 -48 -18 -48 -1 0 7 11 13 26 13 15 0 24 -5 22 -12z m77 -7 c3 -8 3
-16 0 -19 -3 -3 -5 0 -5 7 0 8 -7 10 -20 6 -13 -4 -20 -2 -21 7 0 7 -4 4 -9
-7 -8 -20 -9 -20 -9 1 -1 17 5 21 29 20 16 -1 32 -7 35 -15z m55 9 c0 -13 -20
-13 -40 0 -12 8 -9 10 13 10 15 0 27 -4 27 -10z m37 -9 c0 -11 -5 -17 -9 -15
-11 7 -10 34 1 34 6 0 9 -9 8 -19z m34 4 l9 20 -3 -20 c-2 -22 -21 -24 -23 -3
0 7 1 6 4 -2 4 -12 7 -11 13 5z m49 1 c0 -8 -7 -16 -15 -20 -16 -6 -16 14 0
26 14 10 15 10 15 -6z m45 4 c3 -5 1 -10 -5 -10 -6 0 -8 -4 -5 -10 3 -6 -1 -7
-9 -4 -17 7 -20 16 -9 27 9 10 21 9 28 -3z m151 -5 c17 17 64 20 64 5 0 -5 -3
-10 -7 -11 -5 0 -19 -3 -33 -5 -62 -10 -83 -9 -87 6 -4 13 -3 13 7 0 10 -13
13 -13 23 3 10 15 13 15 15 2 3 -13 5 -13 18 0z m-12461 -25 c3 -5 1 -10 -4
-10 -6 0 -11 5 -11 10 0 6 2 10 4 10 3 0 8 -4 11 -10z m5515 -11 c0 -6 -7 -9
-15 -5 -8 3 -15 2 -15 -3 0 -4 -7 -8 -15 -8 -8 0 -12 4 -9 9 6 10 -10 11 -20
1 -10 -10 -36 -13 -36 -4 0 14 9 17 60 18 30 1 50 -2 50 -8z m24 -1 c-6 -10
-4 -10 7 0 18 16 28 15 25 -3 -1 -9 -5 -15 -9 -15 -4 0 -14 0 -22 0 -8 0 -15
7 -15 15 0 8 5 15 11 15 5 0 7 -6 3 -12z m80 -3 c19 -14 19 -15 -5 -15 -16 0
-26 6 -26 15 0 19 7 18 31 0z m46 0 c0 -8 -4 -15 -10 -15 -5 0 -10 7 -10 15 0
8 5 15 10 15 6 0 10 -7 10 -15z m41 8 c-11 -5 -11 -7 0 -14 11 -7 10 -9 -3 -9
-18 0 -23 11 -11 23 3 4 11 7 17 6 6 0 5 -3 -3 -6z m436 1 c-3 -3 -12 -4 -19
-1 -8 3 -5 6 6 6 11 1 17 -2 13 -5z m116 -1 c-13 -2 -33 -2 -45 0 -13 2 -3 4
22 4 25 0 35 -2 23 -4z m5674 1 c-3 -3 -12 -4 -19 -1 -8 3 -5 6 6 6 11 1 17
-2 13 -5z m-5903 -19 c3 -8 1 -15 -4 -15 -6 0 -10 7 -10 15 0 8 2 15 4 15 2 0
6 -7 10 -15z m-1436 -2 c-21 -5 -24 -23 -5 -24 10 0 10 -2 0 -6 -7 -2 -12 -19
-12 -36 1 -18 3 -24 6 -14 3 11 11 16 22 12 25 -8 45 48 22 63 -14 9 -13 11 5
11 12 1 25 -6 28 -15 9 -23 7 -112 -2 -118 -4 -2 -6 14 -5 37 3 34 1 38 -6 20
-7 -15 -16 -20 -30 -16 -15 4 -21 1 -21 -11 0 -10 -5 -14 -11 -10 -7 4 -10 1
-7 -7 3 -8 18 -17 34 -20 22 -5 24 -7 7 -8 -46 -2 -53 8 -53 73 0 67 4 77 29
75 13 -1 13 -2 -1 -6z m-104 -72 c3 -5 -2 -15 -11 -22 -12 -10 -14 -10 -9 -1
5 9 -21 12 -116 14 l-123 2 125 6 c69 3 126 7 127 8 1 1 4 -2 7 -7z m-1202
-16 c0 -5 -5 -11 -11 -13 -6 -2 -11 4 -11 13 0 9 5 15 11 13 6 -2 11 -8 11
-13z m3 -51 c0 -10 -7 -20 -16 -22 -14 -2 -18 16 -10 46 3 13 26 -8 26 -24z
m-55 1 c0 -19 -6 -19 -14 0 -3 8 -1 15 4 15 6 0 10 -7 10 -15z m93 0 c-3 -9
-8 -14 -10 -11 -3 3 -2 9 2 15 9 16 15 13 8 -4z m-173 -15 c0 -4 -6 -10 -13
-13 -7 -3 -13 3 -13 13 0 10 6 16 13 13 7 -3 13 -9 13 -13z"/>
<path d="M4957 7136 c-7 -19 18 -42 28 -26 8 13 -1 40 -14 40 -5 0 -11 -6 -14
-14z"/>
<path d="M3918 7143 c7 -3 16 -2 19 1 4 3 -2 6 -13 5 -11 0 -14 -3 -6 -6z"/>
<path d="M3918 7108 c9 -9 15 -9 24 0 9 9 7 12 -12 12 -19 0 -21 -3 -12 -12z"/>
<path d="M4294 7139 c-10 -17 13 -36 27 -22 12 12 4 33 -11 33 -5 0 -12 -5
-16 -11z"/>
<path d="M4620 7110 c0 -5 5 -10 10 -10 6 0 10 5 10 10 0 6 -4 10 -10 10 -5 0
-10 -4 -10 -10z"/>
<path d="M4858 7143 c7 -3 16 -2 19 1 4 3 -2 6 -13 5 -11 0 -14 -3 -6 -6z"/>
<path d="M4860 7110 c0 -5 4 -10 9 -10 6 0 13 5 16 10 3 6 -1 10 -9 10 -9 0
-16 -4 -16 -10z"/>
<path d="M905 7070 c-3 -5 -2 -10 4 -10 5 0 13 5 16 10 3 6 2 10 -4 10 -5 0
-13 -4 -16 -10z"/>
<path d="M1478 7103 c7 -3 16 -2 19 1 4 3 -2 6 -13 5 -11 0 -14 -3 -6 -6z"/>
<path d="M1470 7070 c0 -5 7 -10 15 -10 8 0 15 5 15 10 0 6 -7 10 -15 10 -8 0
-15 -4 -15 -10z"/>
<path d="M1575 7070 c-3 -5 -1 -10 4 -10 6 0 11 5 11 10 0 6 -2 10 -4 10 -3 0
-8 -4 -11 -10z"/>
<path d="M647 6345 c-4 -8 -2 -17 3 -20 6 -4 10 3 10 14 0 25 -6 27 -13 6z"/>
<path d="M2410 6340 c0 -5 5 -10 10 -10 6 0 10 5 10 10 0 6 -4 10 -10 10 -5 0
-10 -4 -10 -10z"/>
<path d="M1015 6340 c-3 -5 1 -10 9 -10 9 0 16 5 16 10 0 6 -4 10 -9 10 -6 0
-13 -4 -16 -10z"/>
<path d="M1018 6303 c6 -2 18 -2 25 0 6 3 1 5 -13 5 -14 0 -19 -2 -12 -5z"/>
<path d="M5076 6121 c-9 -14 5 -42 18 -38 15 5 14 39 -1 44 -6 2 -14 0 -17 -6z"/>
<path d="M11050 6149 c0 -5 5 -7 10 -4 6 3 10 8 10 11 0 2 -4 4 -10 4 -5 0
-10 -5 -10 -11z"/>
<path d="M11045 6090 c3 -5 8 -10 11 -10 2 0 4 5 4 10 0 6 -5 10 -11 10 -5 0
-7 -4 -4 -10z"/>
<path d="M11204 6146 c-10 -27 0 -51 21 -48 31 5 41 20 29 40 -15 23 -43 27
-50 8z"/>
<path d="M4490 6090 c0 -5 5 -10 10 -10 6 0 10 5 10 10 0 6 -4 10 -10 10 -5 0
-10 -4 -10 -10z"/>
<path d="M4690 6090 c0 -5 5 -10 10 -10 6 0 10 5 10 10 0 6 -4 10 -10 10 -5 0
-10 -4 -10 -10z"/>
<path d="M5188 6123 c7 -3 16 -2 19 1 4 3 -2 6 -13 5 -11 0 -14 -3 -6 -6z"/>
<path d="M5180 6090 c0 -5 7 -10 15 -10 8 0 15 5 15 10 0 6 -7 10 -15 10 -8 0
-15 -4 -15 -10z"/>
<path d="M5418 6123 c7 -3 16 -2 19 1 4 3 -2 6 -13 5 -11 0 -14 -3 -6 -6z"/>
<path d="M5410 6090 c0 -5 7 -10 15 -10 8 0 15 5 15 10 0 6 -7 10 -15 10 -8 0
-15 -4 -15 -10z"/>
<path d="M6028 6123 c7 -3 16 -2 19 1 4 3 -2 6 -13 5 -11 0 -14 -3 -6 -6z"/>
<path d="M6025 6090 c-3 -5 -1 -10 4 -10 6 0 11 5 11 10 0 6 -2 10 -4 10 -3 0
-8 -4 -11 -10z"/>
<path d="M6228 6123 c7 -3 16 -2 19 1 4 3 -2 6 -13 5 -11 0 -14 -3 -6 -6z"/>
<path d="M6225 6090 c3 -5 10 -10 16 -10 5 0 9 5 9 10 0 6 -7 10 -16 10 -8 0
-12 -4 -9 -10z"/>
<path d="M6325 6090 c-3 -5 -2 -10 4 -10 5 0 13 5 16 10 3 6 2 10 -4 10 -5 0
-13 -4 -16 -10z"/>
<path d="M10552 6108 c2 -13 8 -23 13 -23 6 0 11 10 13 23 2 15 -2 22 -13 22
-11 0 -15 -7 -13 -22z"/>
<path d="M10770 6090 c0 -5 5 -10 10 -10 6 0 10 5 10 10 0 6 -4 10 -10 10 -5
0 -10 -4 -10 -10z"/>
<path d="M11882 6108 c2 -13 8 -23 13 -23 6 0 11 10 13 23 2 15 -2 22 -13 22
-11 0 -15 -7 -13 -22z"/>
<path d="M877 5704 c-4 -4 -7 -18 -7 -31 0 -18 5 -24 18 -21 10 2 17 12 17 27
0 24 -15 37 -28 25z"/>
<path d="M1030 5680 c0 -19 5 -30 14 -30 19 0 29 30 15 46 -18 22 -29 16 -29
-16z"/>
<path d="M1190 5696 c0 -9 7 -16 16 -16 9 0 14 5 12 12 -6 18 -28 21 -28 4z"/>
<path d="M4390 5564 c0 -9 5 -14 12 -12 18 6 21 28 4 28 -9 0 -16 -7 -16 -16z"/>
<path d="M4436 5572 c-8 -13 11 -35 23 -28 16 10 14 36 -3 36 -8 0 -17 -4 -20
-8z"/>
<path d="M4814 5571 c3 -5 15 -7 26 -4 28 7 25 13 -6 13 -14 0 -23 -4 -20 -9z"/>
<path d="M4904 5532 c4 -3 14 -7 22 -8 9 -1 13 0 10 4 -4 3 -14 7 -22 8 -9 1
-13 0 -10 -4z"/>
<path d="M4876 5482 c-8 -13 11 -35 23 -28 6 4 11 11 11 16 0 11 -28 21 -34
12z"/>
<path d="M10705 5541 c-10 -17 12 -21 25 -6 10 12 10 15 -3 15 -9 0 -18 -4
-22 -9z"/>
<path d="M11180 5534 c0 -9 5 -14 12 -12 18 6 21 28 4 28 -9 0 -16 -7 -16 -16z"/>
<path d="M11340 5570 c0 -5 7 -10 15 -10 8 0 15 5 15 10 0 6 -7 10 -15 10 -8
0 -15 -4 -15 -10z"/>
<path d="M10493 5352 c-20 -13 -24 -48 -7 -68 11 -13 17 -15 20 -6 3 6 12 12
20 12 21 0 17 47 -4 59 -10 5 -23 7 -29 3z"/>
<path d="M11000 5280 c0 -5 6 -10 14 -10 8 0 18 5 21 10 3 6 -3 10 -14 10 -12
0 -21 -4 -21 -10z"/>
<path d="M4605 5110 c-3 -5 3 -10 15 -10 12 0 18 5 15 10 -3 6 -10 10 -15 10
-5 0 -12 -4 -15 -10z"/>
<path d="M4814 5106 c-8 -22 3 -49 19 -43 6 2 12 14 12 27 0 27 -22 39 -31 16z"/>
<path d="M5135 5110 c-3 -5 3 -10 15 -10 12 0 18 5 15 10 -3 6 -10 10 -15 10
-5 0 -12 -4 -15 -10z"/>
<path d="M5220 5070 c0 -5 7 -10 15 -10 8 0 15 5 15 10 0 6 -7 10 -15 10 -8 0
-15 -4 -15 -10z"/>
<path d="M5560 5070 c0 -5 7 -10 15 -10 8 0 15 5 15 10 0 6 -7 10 -15 10 -8 0
-15 -4 -15 -10z"/>
<path d="M5695 5110 c-3 -5 3 -10 15 -10 12 0 18 5 15 10 -3 6 -10 10 -15 10
-5 0 -12 -4 -15 -10z"/>
<path d="M5954 5105 c-8 -21 2 -45 20 -45 19 0 29 29 15 46 -15 18 -28 18 -35
-1z"/>
<path d="M6084 5106 c-8 -22 3 -49 19 -43 6 2 12 14 12 27 0 27 -22 39 -31 16z"/>
<path d="M6175 5110 c-3 -5 3 -10 15 -10 12 0 18 5 15 10 -3 6 -10 10 -15 10
-5 0 -12 -4 -15 -10z"/>
<path d="M6500 5110 c0 -5 7 -10 16 -10 8 0 12 5 9 10 -3 6 -10 10 -16 10 -5
0 -9 -4 -9 -10z"/>
<path d="M6754 5106 c-8 -22 3 -49 19 -43 6 2 12 14 12 27 0 27 -22 39 -31 16z"/>
<path d="M7014 5105 c-8 -21 2 -45 20 -45 19 0 29 29 15 46 -15 18 -28 18 -35
-1z"/>
<path d="M7284 5105 c-8 -21 2 -45 20 -45 19 0 29 29 15 46 -15 18 -28 18 -35
-1z"/>
<path d="M7610 5070 c0 -5 4 -10 9 -10 6 0 13 5 16 10 3 6 -1 10 -9 10 -9 0
-16 -4 -16 -10z"/>
<path d="M7775 5110 c-3 -5 3 -10 15 -10 12 0 18 5 15 10 -3 6 -10 10 -15 10
-5 0 -12 -4 -15 -10z"/>
<path d="M8134 5106 c-8 -22 3 -49 19 -43 6 2 12 14 12 27 0 27 -22 39 -31 16z"/>
<path d="M8485 5110 c-3 -5 1 -10 9 -10 9 0 16 5 16 10 0 6 -4 10 -9 10 -6 0
-13 -4 -16 -10z"/>
<path d="M8824 5106 c-8 -22 3 -49 19 -43 6 2 12 14 12 27 0 27 -22 39 -31 16z"/>
<path d="M10668 5063 c6 -2 18 -2 25 0 6 3 1 5 -13 5 -14 0 -19 -2 -12 -5z"/>
<path d="M10870 5030 c0 -5 6 -10 14 -10 8 0 18 5 21 10 3 6 -3 10 -14 10 -12
0 -21 -4 -21 -10z"/>
<path d="M11038 5063 c6 -2 18 -2 25 0 6 3 1 5 -13 5 -14 0 -19 -2 -12 -5z"/>
<path d="M4487 4904 c-4 -4 -7 -18 -7 -31 0 -18 5 -24 18 -21 10 2 17 12 17
27 0 24 -15 37 -28 25z"/>
<path d="M4310 4860 c0 -5 7 -10 15 -10 8 0 15 5 15 10 0 6 -7 10 -15 10 -8 0
-15 -4 -15 -10z"/>
<path d="M4670 4900 c-12 -8 -10 -10 8 -10 13 0 20 4 17 10 -7 12 -6 12 -25 0z"/>
<path d="M4750 4860 c0 -5 7 -10 15 -10 8 0 15 5 15 10 0 6 -7 10 -15 10 -8 0
-15 -4 -15 -10z"/>
<path d="M5095 4900 c-3 -5 1 -10 10 -10 9 0 13 5 10 10 -3 6 -8 10 -10 10 -2
0 -7 -4 -10 -10z"/>
<path d="M5561 4897 c-14 -17 -4 -47 15 -47 22 0 29 29 12 46 -13 13 -16 13
-27 1z"/>
<path d="M5680 4860 c0 -5 7 -10 15 -10 8 0 15 5 15 10 0 6 -7 10 -15 10 -8 0
-15 -4 -15 -10z"/>
<path d="M5845 4900 c-3 -5 3 -10 15 -10 12 0 18 5 15 10 -3 6 -10 10 -15 10
-5 0 -12 -4 -15 -10z"/>
<path d="M6075 4900 c-3 -5 3 -10 15 -10 12 0 18 5 15 10 -3 6 -10 10 -15 10
-5 0 -12 -4 -15 -10z"/>
<path d="M6160 4860 c0 -5 4 -10 9 -10 6 0 13 5 16 10 3 6 -1 10 -9 10 -9 0
-16 -4 -16 -10z"/>
<path d="M6435 4900 c-3 -5 3 -10 15 -10 12 0 18 5 15 10 -3 6 -10 10 -15 10
-5 0 -12 -4 -15 -10z"/>
<path d="M10420 4295 c0 -16 16 -20 24 -6 3 5 -1 11 -9 15 -9 3 -15 0 -15 -9z"/>
<path d="M5737 4284 c-8 -8 1 -24 14 -24 5 0 9 7 9 15 0 15 -12 20 -23 9z"/>
<path d="M11577 4284 c-8 -8 1 -24 14 -24 5 0 9 7 9 15 0 15 -12 20 -23 9z"/>
<path d="M11740 4275 c0 -8 5 -15 10 -15 6 0 10 7 10 15 0 8 -4 15 -10 15 -5
0 -10 -7 -10 -15z"/>
<path d="M12460 3230 c0 -5 5 -10 10 -10 6 0 10 5 10 10 0 6 -4 10 -10 10 -5
0 -10 -4 -10 -10z"/>
<path d="M12680 3230 c0 -5 5 -10 10 -10 6 0 10 5 10 10 0 6 -4 10 -10 10 -5
0 -10 -4 -10 -10z"/>
<path d="M420 3155 c0 -35 0 -35 45 -35 45 0 45 0 45 35 0 35 0 35 -45 35 -45
0 -45 0 -45 -35z"/>
<path d="M1554 3135 c-7 -17 4 -37 17 -30 12 8 12 45 -1 45 -6 0 -13 -7 -16
-15z"/>
<path d="M735 3110 c4 -6 11 -8 16 -5 14 9 11 15 -7 15 -8 0 -12 -5 -9 -10z"/>
<path d="M1024 3139 c-10 -17 13 -36 27 -22 12 12 4 33 -11 33 -5 0 -12 -5
-16 -11z"/>
<path d="M1290 3109 c0 -5 5 -7 10 -4 6 3 10 8 10 11 0 2 -4 4 -10 4 -5 0 -10
-5 -10 -11z"/>
<path d="M441 2871 c-11 -7 -9 -10 8 -16 29 -9 69 4 50 16 -8 5 -21 9 -29 9
-8 0 -21 -4 -29 -9z"/>
<path d="M708 2843 c7 -3 16 -2 19 1 4 3 -2 6 -13 5 -11 0 -14 -3 -6 -6z"/>
<path d="M785 2820 c-3 -5 1 -10 9 -10 9 0 16 5 16 10 0 6 -4 10 -9 10 -6 0
-13 -4 -16 -10z"/>
<path d="M1300 2830 c0 -11 7 -20 15 -20 8 0 15 9 15 20 0 11 -7 20 -15 20 -8
0 -15 -9 -15 -20z"/>
<path d="M1420 2820 c-13 -8 -12 -10 3 -10 9 0 17 5 17 10 0 12 -1 12 -20 0z"/>
<path d="M12010 2570 c0 -11 5 -20 10 -20 6 0 10 9 10 20 0 11 -4 20 -10 20
-5 0 -10 -9 -10 -20z"/>
<path d="M990 2535 c0 -17 5 -25 13 -22 6 2 12 12 12 22 0 10 -6 20 -12 23 -8
2 -13 -6 -13 -23z"/>
<path d="M12220 2560 c0 -5 5 -10 10 -10 6 0 10 5 10 10 0 6 -4 10 -10 10 -5
0 -10 -4 -10 -10z"/>
<path d="M12225 2530 c-3 -5 -1 -10 4 -10 6 0 11 5 11 10 0 6 -2 10 -4 10 -3
0 -8 -4 -11 -10z"/>
<path d="M477 2303 c-14 -13 -6 -33 13 -33 22 0 23 1 14 24 -7 17 -16 20 -27
9z"/>
<path d="M440 2230 c0 -29 2 -30 45 -30 43 0 45 1 45 30 0 29 -2 30 -45 30
-43 0 -45 -1 -45 -30z"/>
<path d="M650 2270 c0 -23 25 -27 33 -6 7 16 -1 26 -20 26 -7 0 -13 -9 -13
-20z"/>
<path d="M2200 2256 c0 -8 5 -18 12 -22 7 -5 9 -2 5 9 -3 9 -1 18 6 21 7 2 4
5 -5 5 -10 1 -18 -5 -18 -13z"/>
<path d="M2400 2255 c0 -8 5 -15 10 -15 6 0 10 7 10 15 0 8 -4 15 -10 15 -5 0
-10 -7 -10 -15z"/>
<path d="M907 2233 c-4 -3 -7 -11 -7 -17 0 -6 5 -5 12 2 6 6 9 14 7 17 -3 3
-9 2 -12 -2z"/>
<path d="M1298 2253 c7 -3 16 -2 19 1 4 3 -2 6 -13 5 -11 0 -14 -3 -6 -6z"/>
<path d="M427 2013 c-17 -16 -3 -23 43 -23 38 0 50 4 50 15 0 11 -11 15 -43
15 -24 0 -47 -3 -50 -7z"/>
<path d="M427 1974 c-4 -4 -7 -20 -7 -36 0 -27 2 -28 51 -28 l50 0 -3 33 c-3
30 -6 32 -43 35 -23 2 -44 0 -48 -4z m56 -21 c-7 -2 -19 -2 -25 0 -7 3 -2 5
12 5 14 0 19 -2 13 -5z"/>
<path d="M1040 1960 c0 -5 7 -10 16 -10 8 0 12 5 9 10 -3 6 -10 10 -16 10 -5
0 -9 -4 -9 -10z"/>
<path d="M13380 1630 c0 -39 1 -40 35 -40 31 0 35 3 35 26 0 29 -24 53 -52 54
-14 0 -18 -8 -18 -40z m53 -7 c-7 -2 -21 -2 -30 0 -10 3 -4 5 12 5 17 0 24 -2
18 -5z"/>
<path d="M498 1363 c7 -3 16 -2 19 1 4 3 -2 6 -13 5 -11 0 -14 -3 -6 -6z"/>
<path d="M4370 1086 c0 -9 7 -16 16 -16 17 0 14 22 -4 28 -7 2 -12 -3 -12 -12z"/>
<path d="M4376 1053 c-11 -11 -6 -23 9 -23 8 0 15 4 15 9 0 13 -16 22 -24 14z"/>
<path d="M8771 1086 c-17 -20 -4 -56 20 -56 24 0 36 27 22 48 -14 22 -28 25
-42 8z"/>
<path d="M12387 1094 c-4 -4 -7 -20 -7 -36 0 -21 5 -28 20 -28 11 0 23 7 27
16 10 27 -22 65 -40 48z"/>
<path d="M12877 1094 c-4 -4 -7 -20 -7 -36 0 -21 5 -28 20 -28 11 0 23 7 27
16 10 27 -22 65 -40 48z"/>
<path d="M4011 1041 c-8 -6 -9 -11 -3 -15 6 -3 14 -1 17 5 9 14 2 20 -14 10z"/>
<path d="M4485 1030 c4 -6 11 -8 16 -5 14 9 11 15 -7 15 -8 0 -12 -5 -9 -10z"/>
<path d="M4918 1063 c7 -3 16 -2 19 1 4 3 -2 6 -13 5 -11 0 -14 -3 -6 -6z"/>
<path d="M4918 1033 c7 -3 16 -2 19 1 4 3 -2 6 -13 5 -11 0 -14 -3 -6 -6z"/>
<path d="M8038 1063 c7 -3 16 -2 19 1 4 3 -2 6 -13 5 -11 0 -14 -3 -6 -6z"/>
<path d="M8038 1033 c7 -3 16 -2 19 1 4 3 -2 6 -13 5 -11 0 -14 -3 -6 -6z"/>
<path d="M8198 1063 c7 -3 16 -2 19 1 4 3 -2 6 -13 5 -11 0 -14 -3 -6 -6z"/>
<path d="M8330 1040 c-13 -8 -12 -10 3 -10 9 0 17 5 17 10 0 12 -1 12 -20 0z"/>
<path d="M8458 1063 c7 -3 16 -2 19 1 4 3 -2 6 -13 5 -11 0 -14 -3 -6 -6z"/>
<path d="M8570 1029 c0 -5 5 -7 10 -4 6 3 10 8 10 11 0 2 -4 4 -10 4 -5 0 -10
-5 -10 -11z"/>
<path d="M11808 1033 c7 -3 16 -2 19 1 4 3 -2 6 -13 5 -11 0 -14 -3 -6 -6z"/>
<path d="M12488 1063 c7 -3 16 -2 19 1 4 3 -2 6 -13 5 -11 0 -14 -3 -6 -6z"/>
<path d="M12488 1033 c7 -3 16 -2 19 1 4 3 -2 6 -13 5 -11 0 -14 -3 -6 -6z"/>
<path d="M12670 1050 c0 -11 7 -20 15 -20 8 0 15 9 15 20 0 11 -7 20 -15 20
-8 0 -15 -9 -15 -20z"/>
<path d="M12970 1050 c0 -11 7 -20 15 -20 8 0 15 9 15 20 0 11 -7 20 -15 20
-8 0 -15 -9 -15 -20z"/>
<path d="M1285 470 c3 -5 10 -10 16 -10 5 0 9 5 9 10 0 6 -7 10 -16 10 -8 0
-12 -4 -9 -10z"/>
<path d="M1354 465 c-3 -8 -3 -19 1 -25 11 -18 25 -11 25 15 0 27 -17 34 -26
10z"/>
<path d="M353 464 c-8 -22 15 -44 26 -25 10 16 4 41 -10 41 -5 0 -12 -7 -16
-16z"/>
<path d="M583 464 c-8 -21 13 -42 28 -27 13 13 5 43 -11 43 -6 0 -13 -7 -17
-16z"/>
<path d="M970 470 c0 -5 5 -10 10 -10 6 0 10 5 10 10 0 6 -4 10 -10 10 -5 0
-10 -4 -10 -10z"/>
<path d="M2066 251 c-9 -14 5 -42 18 -38 15 5 14 39 -1 44 -6 2 -14 0 -17 -6z"/>
<path d="M624 245 c-3 -8 -3 -19 1 -25 11 -18 25 -11 25 15 0 27 -17 34 -26
10z"/>
<path d="M352 238 c2 -13 8 -23 13 -23 6 0 11 10 13 23 2 15 -2 22 -13 22 -11
0 -15 -7 -13 -22z"/>
<path d="M425 251 c-8 -15 3 -31 21 -31 9 0 14 7 12 17 -4 20 -24 28 -33 14z"/>
<path d="M550 220 c0 -5 4 -10 9 -10 6 0 13 5 16 10 3 6 -1 10 -9 10 -9 0 -16
-4 -16 -10z"/>
<path d="M700 250 c0 -5 7 -7 15 -4 8 4 15 8 15 10 0 2 -7 4 -15 4 -8 0 -15
-4 -15 -10z"/>
<path d="M882 238 c2 -13 8 -23 13 -23 6 0 11 10 13 23 2 15 -2 22 -13 22 -11
0 -15 -7 -13 -22z"/>
<path d="M1114 245 c-9 -23 14 -45 26 -25 5 8 8 19 7 24 -6 17 -27 18 -33 1z"/>
<path d="M1220 220 c0 -5 5 -10 10 -10 6 0 10 5 10 10 0 6 -4 10 -10 10 -5 0
-10 -4 -10 -10z"/>
<path d="M1442 238 c5 -32 28 -35 28 -4 0 17 -5 26 -16 26 -10 0 -14 -7 -12
-22z"/>
<path d="M2180 220 c0 -5 5 -10 10 -10 6 0 10 5 10 10 0 6 -4 10 -10 10 -5 0
-10 -4 -10 -10z"/>
<path d="M2400 249 c0 -5 5 -7 10 -4 6 3 10 8 10 11 0 2 -4 4 -10 4 -5 0 -10
-5 -10 -11z"/>
<path d="M6515 199 c-4 -6 -5 -12 -2 -15 2 -3 7 2 10 11 7 17 1 20 -8 4z"/>
<path d="M6520 111 c0 -12 6 -21 15 -21 8 0 15 3 15 6 0 3 -7 12 -15 20 -13
14 -15 13 -15 -5z"/>
</g>
</svg>
