<?xml version="1.0" encoding="iso-8859-1"?>
<!-- Uploaded to: SVG Repo, www.svgrepo.com, Generator: SVG Repo Mixer Tools -->
<!DOCTYPE svg PUBLIC "-//W3C//DTD SVG 1.1//EN" "http://www.w3.org/Graphics/SVG/1.1/DTD/svg11.dtd">
<svg fill="#000000" height="800px" width="800px" version="1.1" id="Capa_1" xmlns="http://www.w3.org/2000/svg" xmlns:xlink="http://www.w3.org/1999/xlink" 
	 viewBox="0 0 282.837 282.837" xml:space="preserve">
<g>
	<path d="M19.539,246.006c-1.412-1.413-2.995-2.159-4.576-2.159c-2.361,0-4.33,1.676-5.266,4.482l-9.24,27.723
		c-0.701,2.103-0.591,3.95,0.309,5.201c0.736,1.021,1.959,1.584,3.443,1.584c0.79,0,1.655-0.155,2.571-0.461l27.722-9.241
		c2.36-0.786,3.907-2.267,4.355-4.167c0.448-1.9-0.273-3.916-2.032-5.675L19.539,246.006z"/>
	<path d="M280.205,48.279L234.553,2.627C232.86,0.934,230.599,0,228.189,0c-2.41,0-4.67,0.934-6.363,2.627L51.892,172.561
		c-3.212,3.212-6.993,9.33-8.429,13.638l-7.417,22.252c-1.503,4.508,0.008,10.909,3.368,14.27l20.697,20.697
		c2.403,2.403,6.48,3.957,10.388,3.957c0,0,0,0,0.001,0c1.404,0,2.71-0.198,3.881-0.589l22.253-7.417
		c4.309-1.436,10.426-5.217,13.637-8.428L280.205,61.007C283.714,57.498,283.714,51.788,280.205,48.279z M252.535,70.896
		L166.8,156.631c-2.929,2.929-6.768,4.393-10.607,4.393s-7.678-1.465-10.606-4.393c-5.858-5.857-5.858-15.355,0-21.213
		l85.735-85.735c5.857-5.857,15.355-5.857,21.213,0C258.393,55.54,258.393,65.038,252.535,70.896z"/>
</g>
</svg>